<svg xmlns="http://www.w3.org/2000/svg" viewBox="0 0 39.4 38.14"><defs><style>.cls-1{fill:#fff;}</style></defs><g id="Capa_2" data-name="Capa 2"><g id="Hábitta"><path class="cls-1" d="M16.14,30.89A1.86,1.86,0,0,1,14.38,30a5.1,5.1,0,0,1-.33-2.27V17.69h5.64V10.18H14.05V.63L3.78,5.89v4.29H0v7.51H3.78v10a17.46,17.46,0,0,0,.87,6.47,5.93,5.93,0,0,0,2.68,3,12.36,12.36,0,0,0,5.64,1,33.72,33.72,0,0,0,7.1-.83l-.76-7.07A11.45,11.45,0,0,1,16.14,30.89Z"/><path class="cls-1" d="M23.26,7.25A1.88,1.88,0,0,1,25,8.11a5,5,0,0,1,.33,2.26V20.45H19.71V28h5.64v9.55l10.27-5.26V28H39.4V20.45H35.62v-10A17.46,17.46,0,0,0,34.75,4a6,6,0,0,0-2.68-3,12.41,12.41,0,0,0-5.64-1,33.57,33.57,0,0,0-7.1.83l.76,7.07A11.32,11.32,0,0,1,23.26,7.25Z"/></g></g></svg>