<svg width="433" height="277" viewBox="0 0 433 277" fill="none" xmlns="http://www.w3.org/2000/svg">
<g clip-path="url(#clip0_239_91)">
<path d="M19.7651 231.796C21.5953 217.076 30.7158 202.573 44.7508 197.783C39.2158 212.934 39.2169 229.555 44.7542 244.705C46.9108 250.54 49.917 256.805 47.8883 262.686C46.6262 266.345 43.5384 269.144 40.0869 270.895C36.6353 272.645 32.8046 273.48 29.0219 274.297L28.2774 274.913C22.2724 261.35 17.935 246.516 19.7651 231.796Z" fill="#F0F0F0"/>
<path d="M44.8901 198.061C36.7167 207.221 31.6368 218.725 30.3717 230.937C30.0527 233.561 30.1493 236.219 30.6578 238.813C31.2348 241.324 32.4735 243.635 34.2453 245.505C35.8623 247.282 37.722 248.912 38.8789 251.052C39.4549 252.155 39.7911 253.368 39.8654 254.611C39.9398 255.854 39.7507 257.099 39.3104 258.263C38.289 261.194 36.2757 263.582 34.2257 265.85C31.9496 268.367 29.5456 270.946 28.5781 274.284C28.4609 274.688 27.8404 274.482 27.9575 274.079C29.6408 268.272 35.2763 264.974 37.9638 259.744C39.2179 257.303 39.7443 254.47 38.5686 251.894C37.5405 249.641 35.6242 247.958 33.9715 246.173C32.2163 244.374 30.9283 242.172 30.2199 239.761C29.581 237.201 29.3822 234.551 29.6321 231.924C30.1005 226.002 31.4969 220.19 33.7702 214.702C36.3299 208.424 39.9446 202.63 44.4576 197.571C44.7371 197.258 45.1677 197.75 44.8901 198.061Z" fill="white"/>
<path d="M30.5473 226.981C28.5277 226.49 26.7481 225.298 25.5263 223.616C24.3046 221.934 23.7203 219.873 23.8777 217.8C23.911 217.381 24.564 217.413 24.5307 217.833C24.3805 219.763 24.925 221.683 26.0659 223.246C27.2067 224.81 28.8689 225.914 30.7523 226.36C31.1614 226.457 30.9542 227.077 30.5473 226.981Z" fill="white"/>
<path d="M33.3068 244.712C36.9546 242.534 39.6474 239.06 40.8483 234.984C40.9669 234.58 41.5875 234.785 41.4689 235.189C40.2113 239.428 37.4017 243.037 33.6007 245.296C33.2383 245.511 32.9463 244.926 33.3068 244.712Z" fill="white"/>
<path d="M36.9359 209.043C37.6778 209.396 38.4957 209.559 39.316 209.517C40.1364 209.475 40.9336 209.231 41.636 208.805C41.9955 208.585 42.2871 209.17 41.93 209.389C41.1517 209.856 40.271 210.125 39.3647 210.173C38.4584 210.221 37.5542 210.046 36.7309 209.664C36.6503 209.635 36.584 209.575 36.5454 209.499C36.5068 209.422 36.4988 209.334 36.5231 209.251C36.5506 209.169 36.6094 209.101 36.6867 209.062C36.764 209.023 36.8536 209.017 36.9359 209.043Z" fill="white"/>
<path d="M87.5316 224.074C87.311 224.218 87.0904 224.361 86.8695 224.51C83.9137 226.454 81.1207 228.635 78.518 231.032C78.3139 231.214 78.1097 231.402 77.9112 231.589C71.7023 237.43 66.6315 244.373 62.9566 252.065C61.497 255.127 60.2725 258.296 59.2937 261.544C57.9421 266.03 56.8334 271.001 54.158 274.67C53.8831 275.056 53.5847 275.425 53.2643 275.774H29.0863C29.0314 275.746 28.9761 275.724 28.9209 275.697L27.9556 275.741C27.9944 275.57 28.0383 275.393 28.077 275.222C28.0991 275.123 28.1266 275.024 28.1487 274.924C28.1651 274.858 28.1818 274.792 28.1929 274.731C28.1983 274.709 28.2039 274.687 28.2093 274.67C28.2203 274.61 28.237 274.555 28.2481 274.499C28.4908 273.512 28.7408 272.524 28.9982 271.536C28.9982 271.531 28.9982 271.531 29.0036 271.525C30.9841 264.005 33.6098 256.584 37.2781 249.797C37.3885 249.593 37.4986 249.383 37.6201 249.179C39.2906 246.129 41.2075 243.221 43.3516 240.484C44.5305 238.988 45.7843 237.554 47.1083 236.185C50.5359 232.656 54.4971 229.688 58.8468 227.39C67.5186 222.811 77.5581 221.056 86.8256 223.854C87.0626 223.925 87.2945 223.997 87.5316 224.074Z" fill="#F0F0F0"/>
<path d="M87.4772 224.381C75.4375 226.773 64.4573 232.899 56.0963 241.888C54.262 243.791 52.7391 245.971 51.5836 248.349C50.5329 250.701 50.1311 253.292 50.42 255.852C50.6415 258.245 51.145 260.666 50.7811 263.071C50.5766 264.299 50.1148 265.47 49.4261 266.508C48.7373 267.545 47.8372 268.424 46.7846 269.089C44.2051 270.814 41.1599 271.509 38.1583 272.084C34.8257 272.724 31.3539 273.335 28.5725 275.417C28.2354 275.67 27.8638 275.132 28.2003 274.88C33.0395 271.257 39.5245 272.018 44.8185 269.46C47.2887 268.267 49.4144 266.322 50.0264 263.557C50.5615 261.139 50.0444 258.641 49.7992 256.221C49.4808 253.727 49.7776 251.194 50.6637 248.841C51.6944 246.413 53.1308 244.177 54.9113 242.231C58.8501 237.784 63.4632 233.985 68.5819 230.972C74.4048 227.5 80.7784 225.051 87.427 223.729C87.8385 223.648 87.886 224.3 87.4772 224.381Z" fill="white"/>
<path d="M58.6179 238.835C57.3005 237.227 56.5974 235.203 56.6342 233.124C56.671 231.046 57.4452 229.048 58.8187 227.488C59.0976 227.173 59.5997 227.592 59.3204 227.907C58.0387 229.358 57.3177 231.219 57.2874 233.154C57.2571 235.09 57.9196 236.972 59.1552 238.462C59.4233 238.786 58.8844 239.157 58.6179 238.835Z" fill="white"/>
<path d="M50.1478 254.654C54.3717 255.111 58.6127 253.959 62.0252 251.428C62.3631 251.177 62.7348 251.714 62.3974 251.965C58.8413 254.593 54.4255 255.782 50.0311 255.297C49.6122 255.25 49.7313 254.607 50.1478 254.654Z" fill="white"/>
<path d="M74.5162 228.36C74.8963 229.088 75.4513 229.711 76.1314 230.172C76.8115 230.632 77.5954 230.917 78.4126 231C78.8318 231.041 78.7123 231.684 78.2959 231.643C77.3934 231.547 76.5281 231.232 75.7755 230.725C75.023 230.217 74.4062 229.533 73.9789 228.732C73.9323 228.66 73.9149 228.573 73.9302 228.488C73.9456 228.404 73.9925 228.328 74.0615 228.277C74.1328 228.228 74.2207 228.21 74.3058 228.225C74.391 228.241 74.4666 228.289 74.5162 228.36Z" fill="white"/>
<path d="M217.904 269.098L224.314 266.942L219.046 241.186L209.586 244.369L217.904 269.098Z" fill="#FFB6B6"/>
<path d="M215.565 267.556L217.369 266.948L223.449 261.713L228.188 263.308C230.322 262.59 232.654 262.749 234.67 263.75C236.686 264.752 238.222 266.513 238.94 268.647L239.028 268.909L218.359 275.864L215.565 267.556Z" fill="#2F2E41"/>
<path d="M186.807 264.86L193.388 266.417L202.523 241.767L192.809 239.469L186.807 264.86Z" fill="#FFB6B6"/>
<path d="M185.636 262.314L187.488 262.752L195.416 261.521L198.597 265.379C200.788 265.898 202.683 267.265 203.866 269.181C205.048 271.097 205.422 273.404 204.904 275.595L204.84 275.864L183.619 270.844L185.636 262.314Z" fill="#2F2E41"/>
<path d="M130.763 261.264H142.374V242.02H130.763V261.264Z" fill="#CACACA"/>
<path d="M141.792 252.203L140.302 254.4L168.166 273.312L169.657 271.115L141.792 252.203Z" fill="#CACACA"/>
<path d="M131.345 252.203L103.48 271.115L104.971 273.312L132.835 254.4L131.345 252.203Z" fill="#CACACA"/>
<path d="M168.912 275.863C170.927 275.863 172.561 274.229 172.561 272.214C172.561 270.198 170.927 268.564 168.912 268.564C166.896 268.564 165.263 270.198 165.263 272.214C165.263 274.229 166.896 275.863 168.912 275.863Z" fill="#CACACA"/>
<path d="M136.403 275.863C138.418 275.863 140.052 274.229 140.052 272.214C140.052 270.198 138.418 268.564 136.403 268.564C134.388 268.564 132.754 270.198 132.754 272.214C132.754 274.229 134.388 275.863 136.403 275.863Z" fill="#CACACA"/>
<path d="M104.226 275.863C106.241 275.863 107.875 274.229 107.875 272.214C107.875 270.198 106.241 268.564 104.226 268.564C102.21 268.564 100.577 270.198 100.577 272.214C100.577 274.229 102.21 275.863 104.226 275.863Z" fill="#CACACA"/>
<path d="M137.729 253.301H135.076V272.214H137.729V253.301Z" fill="#CACACA"/>
<path d="M134.081 250.647H139.057V225.099H134.081V250.647Z" fill="#CACACA"/>
<path d="M111.272 229.08V223.108C111.273 222.008 111.71 220.954 112.488 220.176C113.265 219.399 114.319 218.962 115.418 218.96H154.193C155.292 218.962 156.346 219.399 157.123 220.176C157.901 220.954 158.338 222.008 158.339 223.108V229.08C158.338 230.18 157.901 231.234 157.123 232.011C156.346 232.789 155.292 233.226 154.193 233.228H115.418C114.319 233.226 113.265 232.789 112.488 232.011C111.71 231.234 111.273 230.18 111.272 229.08Z" fill="#3F3D56"/>
<path d="M87.8743 218.066L62.8413 175.014C62.0272 173.611 61.803 171.941 62.2179 170.372C62.6329 168.803 63.6531 167.463 65.0547 166.646L66.5179 165.794C67.9214 164.98 69.5905 164.756 71.159 165.171C72.7276 165.586 74.0675 166.606 74.8848 168.008L99.9179 211.06C100.732 212.464 100.956 214.133 100.541 215.702C100.126 217.271 99.1061 218.611 97.7044 219.429L96.2413 220.28C94.8378 221.094 93.1687 221.319 91.6001 220.904C90.0316 220.489 88.6916 219.468 87.8743 218.066Z" fill="#3F3D56"/>
<path d="M111.435 228.875C106.024 228.869 100.836 226.716 97.0097 222.889C93.1834 219.061 91.031 213.872 91.0249 208.46H93.2314C93.2318 211.795 94.148 215.066 95.8801 217.916C97.6121 220.766 100.094 223.086 103.054 224.622C106.014 226.158 109.338 226.851 112.665 226.626C115.992 226.401 119.194 225.267 121.92 223.346L123.192 225.149C119.755 227.582 115.646 228.884 111.435 228.875Z" fill="#3F3D56"/>
<path d="M134.604 197.976C134.604 197.976 196.386 179.217 205.764 202.39C215.142 225.564 223.968 252.048 223.968 252.048L211.832 255.911L188.112 216.184C188.112 216.184 130.938 230.53 118.98 213.701L134.604 197.976Z" fill="#2F2E41"/>
<path d="M89.9218 151.077L75.5794 149.974L72.8213 167.63C72.8213 167.63 90.4734 213.426 120.813 217.84L149.498 191.907L117.729 180.068L89.9218 151.077Z" fill="#021D49"/>
<path d="M88.2451 140.581C97.5115 135.954 101.273 124.689 96.6471 115.421C92.0211 106.152 80.759 102.39 71.4926 107.017C62.2263 111.644 58.4645 122.909 63.0906 132.177C67.7167 141.446 78.9787 145.208 88.2451 140.581Z" fill="#FFB8B8"/>
<path d="M85.0718 143.229C84.206 143.954 82.9016 144.336 81.1174 144.391C75.8665 144.553 70.7074 142.987 66.4316 139.935C62.1557 136.882 58.9993 132.51 57.4465 127.49C56.6651 124.964 56.0034 121.196 57.2876 117.588C58.2112 114.996 60.0246 112.821 61.6518 110.987C63.0603 109.398 64.5302 107.842 66.0212 106.362C67.8023 104.593 69.9255 102.629 72.5886 101.706C74.5401 101.031 76.6316 100.97 78.6543 100.912C79.359 100.891 80.0882 100.871 80.7965 100.823C82.5581 100.763 84.2872 100.332 85.8706 99.5577C86.1957 99.3835 86.5544 99.281 86.9224 99.2573C87.2904 99.2336 87.6593 99.2892 88.004 99.4203C88.3549 99.5532 88.6733 99.7598 88.9375 100.026C89.2017 100.293 89.4057 100.613 89.5356 100.965C89.7913 101.657 90.0217 102.281 90.8042 102.512C91.0863 102.588 91.3826 102.593 91.6673 102.528C91.952 102.463 92.2164 102.329 92.4373 102.138C92.5539 102.037 92.6938 101.967 92.8444 101.934C92.995 101.901 93.1514 101.906 93.2995 101.949C93.4478 101.99 93.5837 102.067 93.6955 102.173C93.8073 102.279 93.8914 102.41 93.9406 102.556L94.0049 102.746C94.1654 102.635 94.3504 102.565 94.544 102.542C94.7376 102.519 94.9339 102.543 95.1161 102.612C95.3802 102.707 95.6039 102.89 95.7504 103.129C95.8968 103.368 95.9573 103.651 95.9216 103.929C95.6599 106.225 94.76 108.402 93.324 110.212C92.3311 111.439 91.1068 112.458 89.7207 113.212L89.4987 113.335L89.3452 113.103C83.1132 115.407 81.2101 121.937 81.5178 127.326L80.9727 127.399C80.9305 127.224 80.8533 127.059 80.7457 126.915C80.6382 126.771 80.5025 126.649 80.3469 126.559C80.1668 126.444 79.9659 126.367 79.7557 126.33C79.5456 126.294 79.3302 126.299 79.1221 126.346C78.7264 126.47 78.3765 126.709 78.1165 127.033C77.8565 127.356 77.6981 127.749 77.6612 128.163C77.6329 128.595 77.6948 129.028 77.8431 129.435C77.9914 129.841 78.2227 130.213 78.5223 130.525C79.1744 131.173 79.9277 131.711 80.7526 132.116C81.1265 132.327 81.5135 132.546 81.88 132.786C83.9542 134.155 85.4508 136.241 86.0836 138.645C86.3681 139.746 86.5315 141.315 85.694 142.545C85.5192 142.801 85.3099 143.031 85.0718 143.229Z" fill="#2F2E41"/>
<path d="M208.204 209.496C205.318 234.329 199.144 257.566 199.144 257.566L187.56 255.911L190.198 209.082" fill="#2F2E41"/>
<path d="M93.9772 126.81C93.4231 126.81 92.8837 126.632 92.4377 126.303C91.9917 125.975 91.6625 125.512 91.4983 124.982C83.9714 121.059 87.9507 118.292 88.469 115.177C88.3685 114.852 88.333 114.51 88.3646 114.171C88.3962 113.832 88.4943 113.502 88.6532 113.201C88.8121 112.9 89.0288 112.633 89.2909 112.416C89.5529 112.198 89.8552 112.035 90.1805 111.934L97.8753 109.556C98.5323 109.353 99.2427 109.42 99.8507 109.741C100.459 110.062 100.914 110.611 101.118 111.268L104.147 121.073C104.349 121.73 104.283 122.441 103.962 123.048C103.641 123.656 103.092 124.112 102.436 124.316L94.741 126.695C94.4936 126.771 94.2362 126.81 93.9772 126.81Z" fill="#3F3D56"/>
<path d="M99.0053 109.216C99.5655 109.212 100.112 109.388 100.564 109.719C101.016 110.05 101.349 110.518 101.514 111.054L104.706 121.079C104.921 121.751 104.867 122.48 104.554 123.112C104.404 123.422 104.193 123.699 103.935 123.927C103.676 124.155 103.375 124.329 103.048 124.438L101.318 125.019L96.5137 109.928L98.2436 109.347C98.4892 109.264 98.7462 109.22 99.0053 109.216Z" fill="#021D49"/>
<path d="M59.2296 132.396C58.8713 132.395 58.5225 132.281 58.2341 132.068C57.9457 131.855 57.7329 131.556 57.6268 131.214L56.8252 128.619C56.7602 128.409 56.7373 128.188 56.7577 127.968C56.7782 127.749 56.8416 127.536 56.9444 127.341C57.0472 127.147 57.1873 126.974 57.3568 126.833C57.5263 126.693 57.7217 126.587 57.9321 126.522L92.6751 115.783C92.8854 115.718 93.1066 115.695 93.3259 115.715C93.5451 115.736 93.7582 115.799 93.9529 115.902C94.1477 116.005 94.3202 116.145 94.4608 116.315C94.6013 116.484 94.7071 116.68 94.7721 116.89L95.5735 119.485C95.7043 119.909 95.6612 120.369 95.4537 120.762C95.2462 121.155 94.8913 121.45 94.4668 121.582L59.7237 132.321C59.5637 132.37 59.3971 132.396 59.2296 132.396Z" fill="#3F3D56"/>
<path d="M153.741 213.618H148.564C147.9 213.618 147.26 213.363 146.777 212.906C146.294 212.45 146.004 211.825 145.967 211.161L145.089 195.561C145.069 195.208 145.121 194.854 145.243 194.521C145.364 194.189 145.552 193.885 145.796 193.627C146.039 193.37 146.332 193.165 146.657 193.025C146.982 192.886 147.332 192.813 147.686 192.814H154.619C154.973 192.813 155.323 192.886 155.648 193.025C155.974 193.165 156.267 193.37 156.51 193.628C156.753 193.885 156.941 194.189 157.062 194.521C157.184 194.854 157.236 195.208 157.216 195.561L156.338 211.161C156.301 211.825 156.011 212.45 155.528 212.906C155.045 213.363 154.406 213.618 153.741 213.618Z" fill="#E4E4E4"/>
<path d="M157.023 196.426L156.956 197.582H145.349L145.282 196.426H157.023Z" fill="#CACACA"/>
<path d="M156.875 199.026L156.812 200.182H145.494L145.43 199.026H156.875Z" fill="#CACACA"/>
<path d="M156.731 201.626L156.665 202.782H145.641L145.574 201.626H156.731Z" fill="#CACACA"/>
<path d="M156.583 204.227L156.517 205.383H145.788L145.721 204.227H156.583Z" fill="#CACACA"/>
<path d="M156.436 206.828L156.373 207.984H145.933L145.869 206.828H156.436Z" fill="#CACACA"/>
<path d="M156.292 209.428L156.226 210.584H146.08L146.013 209.428H156.292Z" fill="#CACACA"/>
<path d="M151.297 193.825C152.334 193.825 153.175 193.631 153.175 193.391C153.175 193.152 152.334 192.958 151.297 192.958C150.26 192.958 149.419 193.152 149.419 193.391C149.419 193.631 150.26 193.825 151.297 193.825Z" fill="#CACACA"/>
<path d="M151.439 193.825C151.382 193.825 151.326 193.814 151.273 193.792C151.221 193.77 151.173 193.738 151.133 193.698C151.093 193.658 151.061 193.61 151.039 193.557C151.017 193.505 151.006 193.448 151.006 193.391V185.182H148.264C148.149 185.182 148.039 185.136 147.958 185.055C147.877 184.974 147.832 184.864 147.832 184.749C147.832 184.634 147.877 184.524 147.958 184.443C148.039 184.362 148.149 184.316 148.264 184.316H151.439C151.496 184.316 151.553 184.327 151.605 184.349C151.658 184.37 151.705 184.402 151.746 184.442C151.786 184.483 151.818 184.531 151.84 184.583C151.861 184.636 151.873 184.692 151.873 184.749V193.391C151.873 193.448 151.861 193.505 151.84 193.557C151.818 193.61 151.786 193.658 151.746 193.698C151.705 193.738 151.658 193.77 151.605 193.792C151.553 193.814 151.496 193.825 151.439 193.825Z" fill="#CACACA"/>
<path d="M149.957 200.938C149.33 200.424 148.598 200.053 147.812 199.852C147.026 199.652 146.206 199.626 145.409 199.776C144.612 199.927 143.858 200.251 143.2 200.724C142.542 201.198 141.995 201.81 141.599 202.518L122.192 199.06L126.245 208.47L144.052 210.311C145.285 210.898 146.691 211.012 148.002 210.632C149.313 210.252 150.439 209.403 151.167 208.248C151.895 207.092 152.174 205.71 151.951 204.363C151.728 203.016 151.018 201.797 149.957 200.938Z" fill="#FFB6B6"/>
<path d="M137.339 210.417L101.771 207.62L101.7 207.486C101.564 207.229 88.088 181.694 86.105 175.836C84.8712 172.308 84.8807 168.465 86.1319 164.943L86.1679 164.858L86.248 164.812C87.8874 163.873 89.7977 163.521 91.6639 163.814C93.5302 164.106 95.241 165.026 96.5143 166.422C102.626 173.194 107.081 181.294 109.526 190.082L110.912 195.083L136.359 200.784L137.339 210.417Z" fill="#021D49"/>
<path d="M274.032 23.7661L432.448 0.638184V152.359L274.032 129.232V23.7661Z" fill="#F2F2F2"/>
<path d="M433 152.997L273.48 129.709V23.2891L433 0V152.997ZM274.584 128.755L431.897 151.721V1.27648L274.584 24.2433V128.755Z" fill="#3F3D56"/>
<path d="M348.916 54.0471C348.681 53.5108 348.434 52.9662 348.17 52.442C347.918 51.9305 347.633 51.4352 347.319 50.9589C347.035 50.5235 346.7 50.1232 346.322 49.7666C345.981 49.4437 345.579 49.1936 345.138 49.0316C344.658 48.8656 344.143 48.8314 343.645 48.9323C343.125 49.0421 342.628 49.2397 342.175 49.5166C341.675 49.8179 341.203 50.1626 340.763 50.5468C340.306 50.9374 339.863 51.3639 339.439 51.7866C338.179 53.046 336.938 54.3223 335.716 55.6152C334.503 56.9004 333.306 58.2018 332.127 59.5194C330.958 60.8293 329.805 62.155 328.671 63.4965C327.543 64.8306 326.433 66.1802 325.341 67.5453L325.346 67.6258L327.905 67.308L330.498 66.9863L333.121 66.6608L335.778 66.3297C336.423 66.2497 337.076 66.167 337.728 66.0594C338.387 65.9551 339.04 65.815 339.684 65.6395C340.342 65.4587 340.983 65.2205 341.6 64.9277C342.25 64.6171 342.864 64.2345 343.429 63.7873C343.653 63.6096 343.876 63.4181 344.1 63.2283C344.324 63.0385 344.55 62.8509 344.78 62.6826C345 62.5167 345.236 62.3723 345.484 62.2512C345.718 62.1366 345.97 62.0636 346.229 62.0354C346.545 62.0077 346.864 62.0561 347.157 62.1767C347.47 62.3069 347.762 62.4853 348.02 62.7053C348.307 62.9467 348.571 63.2133 348.81 63.502C349.062 63.8046 349.299 64.1199 349.519 64.4466C350.861 66.4926 351.998 68.666 352.913 70.9352C353.906 73.2868 354.788 75.7659 355.7 78.2245C356.614 80.6936 357.553 83.1423 358.648 85.4266C359.678 87.6711 360.995 89.7727 362.565 91.6791C361.581 88.3365 360.555 85.0365 359.487 81.7789C358.423 78.5379 357.32 75.3425 356.177 72.1927C355.037 69.0602 353.861 65.9768 352.647 62.9425C351.439 59.9263 350.195 56.9611 348.915 54.0471H348.916Z" fill="white"/>
<path d="M314.392 54.9436L314.353 54.9889L314.313 55.0341L314.274 55.0788L314.235 55.1235C314.139 55.2026 314.044 55.2828 313.948 55.3641C313.853 55.4454 313.758 55.5272 313.664 55.6096C313.569 55.6924 313.475 55.7755 313.381 55.859L313.1 56.1106C312.925 56.2684 312.75 56.4275 312.576 56.5879C312.402 56.7482 312.229 56.9101 312.057 57.0734C311.885 57.2367 311.714 57.4023 311.543 57.57C311.373 57.7377 311.203 57.9053 311.033 58.0726C310.697 58.4085 310.364 58.7496 310.034 59.0961C309.705 59.4426 309.378 59.7934 309.056 60.1483C308.733 60.5044 308.414 60.866 308.098 61.2331C307.781 61.6002 307.469 61.9721 307.16 62.3488C307 62.5441 306.84 62.7409 306.682 62.9391C306.524 63.1374 306.367 63.3368 306.211 63.5372C306.054 63.7377 305.899 63.94 305.745 64.1442C305.591 64.3483 305.437 64.5519 305.284 64.755L305.251 64.6998L305.219 64.6446L305.187 64.5894L305.158 64.5265L305.15 64.5122L305.142 64.4978L305.135 64.4835L305.128 64.4686C304.802 63.8359 304.546 63.1699 304.363 62.4823C304.17 61.7597 304.044 61.0209 303.986 60.2753C303.926 59.5107 303.932 58.7423 304.005 57.9788C304.077 57.2133 304.22 56.4561 304.43 55.7166C304.628 55.0172 304.897 54.3401 305.234 53.6961C305.534 53.1193 305.905 52.5819 306.337 52.096C306.722 51.6622 307.172 51.2917 307.672 50.998C308.133 50.728 308.643 50.5527 309.173 50.4827C309.686 50.4182 310.207 50.4655 310.701 50.6212C311.216 50.7878 311.695 51.0498 312.114 51.3936C312.584 51.7791 312.994 52.2327 313.331 52.7394C313.718 53.32 314.034 53.9452 314.272 54.6015L314.277 54.6131L314.281 54.6253L314.285 54.6374L314.289 54.649L314.316 54.7224L314.342 54.7963L314.367 54.8708L314.392 54.9436Z" fill="#021D49"/>
<path d="M314.942 104.817C315.527 104.882 316.112 104.963 316.699 105.059C317.285 105.154 317.874 105.265 318.464 105.39C319.056 105.516 319.648 105.658 320.241 105.815C320.834 105.972 321.43 106.145 322.027 106.334C323.869 106.921 325.671 107.628 327.421 108.451C329.272 109.321 331.069 110.302 332.801 111.389C334.644 112.545 336.422 113.802 338.126 115.155C339.943 116.597 341.684 118.131 343.345 119.751C343.916 120.306 344.483 120.877 345.045 121.461C345.608 122.046 346.166 122.646 346.722 123.261C347.277 123.876 347.827 124.506 348.372 125.149C348.916 125.792 349.457 126.451 349.993 127.124L350.19 127.373L350.386 127.623L350.582 127.874L350.777 128.126C350.791 128.148 350.811 128.166 350.834 128.179C350.857 128.192 350.883 128.199 350.909 128.199C350.932 128.197 350.954 128.19 350.974 128.179C350.993 128.168 351.011 128.152 351.024 128.133C351.056 128.091 351.074 128.04 351.076 127.987C351.078 127.925 351.058 127.865 351.02 127.816C350.487 127.125 349.948 126.448 349.403 125.784C348.857 125.121 348.307 124.473 347.752 123.841C347.2 123.208 346.642 122.589 346.077 121.984C345.512 121.379 344.944 120.791 344.376 120.219C343.806 119.646 343.232 119.088 342.654 118.545C342.076 118.001 341.496 117.473 340.914 116.961C340.331 116.449 339.746 115.952 339.156 115.471C338.566 114.99 337.976 114.524 337.384 114.071C336.79 113.62 336.195 113.183 335.597 112.761C334.999 112.339 334.4 111.932 333.801 111.541C333.202 111.151 332.601 110.776 331.998 110.416C331.394 110.056 330.792 109.711 330.189 109.382C329.588 109.054 328.985 108.741 328.38 108.444C327.776 108.146 327.173 107.865 326.572 107.599C325.971 107.333 325.368 107.083 324.764 106.848C324.16 106.613 323.558 106.393 322.959 106.189C322.36 105.986 321.762 105.797 321.164 105.625C320.566 105.452 319.97 105.295 319.377 105.153C318.783 105.012 318.19 104.886 317.598 104.775C317.006 104.664 316.417 104.568 315.83 104.487L315.61 104.458L315.389 104.43L315.164 104.403L314.942 104.378C314.923 104.378 314.904 104.383 314.887 104.394C314.869 104.405 314.854 104.42 314.843 104.438C314.83 104.459 314.82 104.481 314.814 104.505C314.807 104.532 314.803 104.561 314.803 104.589C314.803 104.617 314.807 104.645 314.814 104.672C314.821 104.697 314.83 104.721 314.843 104.743C314.855 104.762 314.87 104.78 314.888 104.794C314.904 104.806 314.922 104.814 314.942 104.817Z" fill="white"/>
<path d="M314.391 90.9242C315.435 91.0731 316.485 91.2249 317.54 91.3794C318.595 91.5339 319.661 91.6976 320.739 91.8704C321.816 92.0437 322.898 92.2276 323.984 92.4222C325.077 92.6208 326.174 92.8356 327.276 93.0666C328.387 93.2873 329.501 93.538 330.618 93.8187C331.742 94.0993 332.868 94.4091 333.998 94.7478C335.134 95.0885 336.272 95.4585 337.413 95.858C338.559 96.263 339.707 96.6966 340.857 97.159C341.88 97.5714 342.9 98.021 343.919 98.5081C344.937 98.9951 345.956 99.5201 346.977 100.083C347.997 100.65 349.013 101.254 350.025 101.895C351.037 102.536 352.048 103.217 353.059 103.939C354.004 104.616 354.939 105.333 355.863 106.091C356.787 106.848 357.703 107.648 358.61 108.491C359.516 109.334 360.41 110.215 361.289 111.136C362.169 112.056 363.037 113.017 363.892 114.02C364.738 115.01 365.558 116.042 366.352 117.117C367.147 118.192 367.919 119.31 368.669 120.472C369.416 121.633 370.134 122.833 370.824 124.069C371.513 125.306 372.173 126.581 372.804 127.893C372.882 128.059 372.96 128.225 373.037 128.39C373.114 128.556 373.191 128.723 373.267 128.892C373.343 129.059 373.419 129.228 373.494 129.396C373.569 129.565 373.642 129.735 373.714 129.905C373.725 129.934 373.741 129.96 373.762 129.982C373.783 130.005 373.808 130.022 373.837 130.034C373.859 130.042 373.884 130.044 373.907 130.041C373.931 130.037 373.953 130.029 373.973 130.015C374.017 129.984 374.049 129.939 374.062 129.886C374.078 129.82 374.07 129.75 374.041 129.688C373.445 128.333 372.815 127.011 372.151 125.722C371.487 124.433 370.792 123.187 370.067 121.982C369.345 120.775 368.593 119.606 367.811 118.476C367.03 117.346 366.225 116.263 365.396 115.226C364.561 114.182 363.708 113.176 362.838 112.208C361.969 111.239 361.087 110.314 360.194 109.432C359.301 108.549 358.394 107.706 357.473 106.903C356.552 106.1 355.623 105.341 354.687 104.626C353.711 103.881 352.728 103.172 351.738 102.5C350.748 101.828 349.758 101.196 348.766 100.604C347.773 100.012 346.777 99.456 345.778 98.9373C344.779 98.4187 343.78 97.9392 342.781 97.4989C341.624 96.9942 340.469 96.5219 339.315 96.082C338.168 95.6443 337.022 95.2396 335.878 94.8681C334.737 94.4948 333.601 94.154 332.47 93.8457C331.343 93.5389 330.219 93.2631 329.098 93.0181C327.975 92.7606 326.856 92.5239 325.742 92.308C324.635 92.0917 323.531 91.891 322.433 91.706C321.341 91.5221 320.254 91.3477 319.172 91.1829C318.099 91.02 317.03 90.8629 315.963 90.7117L315.569 90.6566L315.175 90.6014L314.783 90.5435L314.391 90.4883C314.37 90.4853 314.349 90.4891 314.33 90.499C314.311 90.5089 314.296 90.5245 314.287 90.5435C314.263 90.5877 314.252 90.6373 314.253 90.6875C314.252 90.7413 314.264 90.7946 314.288 90.8431C314.297 90.8639 314.311 90.8822 314.329 90.8963C314.347 90.9104 314.368 90.92 314.391 90.9242Z" fill="white"/>
<path d="M384.087 125.056C383.918 124.762 383.75 124.467 383.581 124.17C383.413 123.873 383.246 123.577 383.078 123.283C382.911 122.989 382.744 122.693 382.578 122.397C382.412 122.1 382.246 121.805 382.082 121.511C380.738 119.11 379.422 116.705 378.134 114.297C376.853 111.902 375.598 109.503 374.37 107.098C373.149 104.707 371.953 102.311 370.785 99.9084C369.62 97.5175 368.48 95.1217 367.365 92.7212C366.61 91.0969 365.868 89.4705 365.138 87.8421C364.407 86.2136 363.69 84.5882 362.986 82.9657C362.283 81.3428 361.591 79.7175 360.911 78.0898C360.231 76.4621 359.563 74.8366 358.909 73.2134C358.597 72.4409 358.288 71.6685 357.981 70.896C357.674 70.1235 357.37 69.3511 357.07 68.5786C356.769 67.8062 356.47 67.0337 356.175 66.2612C355.879 65.4888 355.586 64.7163 355.296 63.9439C355.071 63.345 354.847 62.7458 354.625 62.1462C354.403 61.5467 354.183 60.9473 353.963 60.3481C353.745 59.7489 353.527 59.1495 353.312 58.5499C353.096 57.9503 352.882 57.3507 352.67 56.7512C352.609 56.5798 352.549 56.4084 352.489 56.237C352.429 56.0655 352.369 55.8939 352.31 55.7222C352.251 55.5504 352.192 55.3786 352.133 55.2068L351.957 54.6909C351.819 54.2863 351.682 53.8817 351.544 53.4771C351.407 53.0724 351.27 52.6689 351.132 52.2665C350.994 51.8641 350.855 51.463 350.714 51.0631C350.574 50.6633 350.431 50.2657 350.287 49.8702C350.122 49.42 349.95 48.9648 349.763 48.5173C349.577 48.0699 349.377 47.6312 349.162 47.2124C348.955 46.804 348.72 46.4096 348.461 46.0317C348.219 45.6776 347.942 45.3486 347.634 45.0496C347.502 44.9172 347.36 44.7959 347.208 44.687C347.064 44.5837 346.911 44.4935 346.75 44.4178C346.595 44.3448 346.434 44.287 346.268 44.2451C346.105 44.2039 345.937 44.1794 345.769 44.1717C345.529 44.169 345.291 44.2025 345.061 44.271C344.825 44.3418 344.597 44.4372 344.382 44.5557C344.155 44.6797 343.937 44.8179 343.728 44.9695C343.514 45.1224 343.304 45.2879 343.098 45.4556C341.592 46.6934 340.121 47.983 338.685 49.3245C337.261 50.6565 335.872 52.0381 334.52 53.4693C333.177 54.8907 331.87 56.3593 330.6 57.8751C329.337 59.381 328.111 60.9322 326.922 62.5286C325.739 64.1103 324.593 65.7299 323.486 67.3874C322.385 69.0368 321.322 70.7233 320.297 72.447C319.277 74.1615 318.296 75.9114 317.353 77.6969C316.417 79.471 315.519 81.2799 314.658 83.1235C314.65 83.1457 314.637 83.1658 314.62 83.182C314.603 83.1982 314.582 83.2101 314.56 83.2167C314.541 83.2198 314.521 83.2183 314.503 83.2123C314.485 83.2064 314.468 83.1962 314.455 83.1825C314.421 83.1505 314.398 83.1086 314.389 83.0628C314.378 83.0068 314.385 82.9487 314.41 82.8972C314.514 82.6732 314.619 82.4496 314.725 82.2263C314.83 82.003 314.937 81.781 315.044 81.5603C315.151 81.3396 315.259 81.1178 315.366 80.8949C315.474 80.672 315.583 80.4513 315.692 80.2328C317.056 77.4836 318.505 74.8144 320.041 72.2252C321.585 69.6183 323.217 67.0973 324.937 64.6623C326.667 62.2088 328.483 59.8475 330.384 57.5783C332.302 55.2907 334.305 53.102 336.393 51.0124C336.746 50.6596 337.101 50.3102 337.459 49.964C337.817 49.6179 338.178 49.2742 338.541 48.9328C338.904 48.5918 339.27 48.254 339.638 47.9192C340.006 47.5845 340.377 47.2525 340.75 46.9233C340.938 46.7574 341.127 46.5919 341.317 46.4267C341.506 46.2616 341.696 46.0975 341.887 45.9346C342.078 45.7713 342.269 45.6094 342.462 45.449C342.654 45.2886 342.848 45.1301 343.042 44.9734C343.224 44.8066 343.417 44.6514 343.619 44.5088C343.812 44.3727 344.015 44.2499 344.225 44.1414C344.428 44.0364 344.639 43.9464 344.855 43.8721C345.066 43.8002 345.282 43.7449 345.502 43.7066C346.224 43.642 346.943 43.8635 347.504 44.3234C348.139 44.8495 348.668 45.4913 349.064 46.2149C349.53 47.0344 349.932 47.8889 350.265 48.7706C350.615 49.6655 350.919 50.5665 351.193 51.3716C351.279 51.625 351.365 51.8783 351.452 52.1313C351.538 52.3844 351.625 52.6377 351.713 52.8911C351.8 53.1442 351.887 53.3972 351.975 53.6503C352.063 53.9034 352.151 54.1563 352.24 54.409C352.575 55.3698 352.913 56.3298 353.256 57.2891C353.598 58.2485 353.945 59.2082 354.295 60.1682C354.646 61.1286 355.001 62.0883 355.36 63.0473C355.718 64.0062 356.081 64.9657 356.448 65.9258C356.675 66.5187 356.904 67.1111 357.133 67.703C357.362 68.2948 357.594 68.8874 357.827 69.4807C358.06 70.0737 358.295 70.6663 358.531 71.2585C358.767 71.8507 359.004 72.4428 359.242 73.0346C359.988 74.8837 360.749 76.7295 361.525 78.572C362.303 80.4211 363.096 82.2673 363.904 84.1105C364.713 85.9608 365.538 87.8084 366.38 89.6535C367.224 91.5055 368.083 93.3554 368.957 95.203C370.121 97.6617 371.311 100.115 372.528 102.562C373.751 105.023 375.002 107.479 376.279 109.931C377.566 112.395 378.881 114.856 380.223 117.314C381.574 119.786 382.954 122.254 384.365 124.719C384.401 124.782 384.416 124.854 384.409 124.926C384.403 124.987 384.38 125.044 384.342 125.092C384.328 125.111 384.309 125.128 384.287 125.139C384.265 125.15 384.241 125.156 384.217 125.156C384.189 125.151 384.162 125.14 384.14 125.122C384.117 125.105 384.099 125.082 384.087 125.056Z" fill="white"/>
<path d="M326.656 60.2593L326.537 60.0667L326.418 59.8741L326.299 59.6816L326.179 59.489C325.863 58.9842 325.543 58.4821 325.213 57.996C324.883 57.5099 324.543 57.0376 324.19 56.5995C323.849 56.1691 323.48 55.7614 323.086 55.379C322.714 55.018 322.308 54.6944 321.873 54.4129C321.675 54.2819 321.468 54.1653 321.254 54.0642C321.047 53.967 320.834 53.8858 320.615 53.8214C320.401 53.7585 320.183 53.7129 319.962 53.6851C319.742 53.6576 319.521 53.6482 319.3 53.657C319.071 53.6794 318.843 53.7178 318.619 53.7717C318.392 53.8265 318.168 53.8964 317.95 53.9808C317.726 54.0675 317.508 54.1681 317.296 54.2821C317.078 54.4 316.866 54.5306 316.663 54.6733C316.564 54.7384 316.466 54.8055 316.369 54.8747C316.271 54.9438 316.174 55.0143 316.078 55.086C315.982 55.1596 315.886 55.2331 315.791 55.3067C315.695 55.3803 315.6 55.4562 315.506 55.5346C315.398 55.6229 315.291 55.7124 315.184 55.8033C315.077 55.8941 314.97 55.9861 314.864 56.0792C314.758 56.1715 314.653 56.2644 314.547 56.3578L314.232 56.6387C314.035 56.8148 313.84 56.9925 313.645 57.1717C313.45 57.3508 313.256 57.5316 313.063 57.714C312.87 57.8979 312.678 58.0819 312.486 58.2658C312.295 58.4497 312.105 58.6366 311.915 58.8264C311.539 59.2008 311.166 59.5813 310.797 59.9679C310.427 60.3545 310.062 60.7463 309.702 61.1432C309.341 61.5401 308.984 61.943 308.63 62.3521C308.276 62.7611 307.927 63.1753 307.582 63.5946C307.403 63.8124 307.225 64.0314 307.048 64.2518C306.871 64.4721 306.695 64.6939 306.52 64.9172C306.346 65.1405 306.172 65.3652 306 65.5914C305.828 65.8177 305.657 66.0452 305.487 66.274C305.328 66.4866 305.171 66.7003 305.015 66.9151C304.859 67.1299 304.704 67.346 304.549 67.5634C304.395 67.7804 304.242 67.9988 304.09 68.2184C303.938 68.438 303.786 68.6586 303.636 68.8804C303.626 68.899 303.612 68.9145 303.594 68.9251C303.575 68.9356 303.555 68.9408 303.534 68.94C303.515 68.936 303.497 68.928 303.482 68.9165C303.466 68.9049 303.453 68.8902 303.444 68.8733C303.418 68.8316 303.404 68.7838 303.403 68.7348C303.4 68.6806 303.415 68.627 303.446 68.582L303.565 68.4037L303.684 68.2283L303.805 68.0534L303.925 67.8796C304.038 67.7162 304.152 67.5537 304.266 67.3918C304.381 67.23 304.496 67.0685 304.611 66.9074C304.727 66.7466 304.843 66.5864 304.96 66.4268C305.077 66.2672 305.194 66.1083 305.312 65.9501C305.527 65.6606 305.743 65.3737 305.962 65.0893C306.18 64.805 306.401 64.5225 306.624 64.2418C306.844 63.9634 307.067 63.6862 307.292 63.4103C307.517 63.1345 307.744 62.861 307.974 62.5899C308.33 62.1672 308.691 61.7507 309.055 61.3402C309.419 60.9297 309.786 60.525 310.158 60.1263C310.531 59.7265 310.907 59.3329 311.288 58.9455C311.668 58.5582 312.053 58.1762 312.443 57.7996C312.637 57.6116 312.833 57.4253 313.029 57.2406C313.225 57.056 313.423 56.872 313.622 56.6889C313.82 56.5072 314.019 56.3271 314.219 56.1487C314.42 55.9703 314.621 55.7934 314.824 55.6179L315.007 55.4601C315.069 55.4079 315.13 55.356 315.193 55.3045C315.255 55.253 315.317 55.2019 315.379 55.1511C315.442 55.1004 315.504 55.0503 315.567 55.001C315.709 54.8841 315.853 54.7713 315.998 54.6628C316.143 54.5543 316.29 54.4502 316.439 54.3505C316.586 54.2505 316.736 54.155 316.888 54.0642C317.04 53.9733 317.192 53.8867 317.344 53.8043C317.557 53.6875 317.778 53.5863 318.006 53.5014C318.226 53.4192 318.453 53.3541 318.683 53.3066C318.909 53.2598 319.139 53.2312 319.369 53.2211C319.6 53.2112 319.83 53.22 320.059 53.2476C320.283 53.2837 320.504 53.3355 320.721 53.4026C320.941 53.471 321.157 53.5542 321.366 53.6514C321.582 53.7518 321.792 53.8657 321.993 53.9924C322.203 54.1244 322.404 54.2687 322.597 54.4245C323.024 54.7639 323.423 55.1384 323.789 55.544C324.176 55.9719 324.54 56.4202 324.879 56.8869C325.228 57.3637 325.565 57.8641 325.896 58.3767C326.226 58.8893 326.55 59.4112 326.872 59.9315C326.903 59.9828 326.917 60.0424 326.912 60.102C326.908 60.1563 326.891 60.2089 326.862 60.2549C326.852 60.2734 326.838 60.2895 326.821 60.3022C326.804 60.3148 326.785 60.3237 326.764 60.3282C326.741 60.329 326.719 60.3228 326.699 60.3105C326.68 60.2982 326.665 60.2803 326.656 60.2593Z" fill="white"/>
<path d="M364.825 82.2407L369.753 79.856L372.24 78.6526C372.443 78.5448 372.646 78.4406 372.85 78.3398C373.054 78.239 373.26 78.1413 373.467 78.0468C373.674 77.9522 373.883 77.8614 374.092 77.7742C374.302 77.687 374.512 77.603 374.723 77.5221C374.906 77.453 375.094 77.4013 375.286 77.3676C375.665 77.3012 376.054 77.3085 376.43 77.3891C376.623 77.4304 376.811 77.4895 376.993 77.5656C377.16 77.6479 377.322 77.74 377.479 77.8415C377.639 77.9455 377.793 78.0585 377.94 78.1798C378.092 78.3048 378.237 78.4378 378.375 78.5781C378.517 78.723 378.652 78.8749 378.779 79.0333C378.911 79.1944 379.041 79.3587 379.169 79.526C379.296 79.6934 379.422 79.8639 379.545 80.0375C379.668 80.2111 379.789 80.3879 379.907 80.5678C380.025 80.7476 380.141 80.9305 380.254 81.1162C380.395 81.3399 380.536 81.5642 380.676 81.7893C380.817 82.0145 380.957 82.2401 381.097 82.4664L381.517 83.1456L381.937 83.8259C382.518 84.7635 383.098 85.7044 383.68 86.6487C384.261 87.5929 384.844 88.5428 385.429 89.4985C386.014 90.4549 386.6 91.4138 387.186 92.3753C387.772 93.3369 388.361 94.3048 388.951 95.2792C389.54 96.2529 390.13 97.2301 390.723 98.2107C391.316 99.1914 391.909 100.178 392.502 101.17C393.097 102.163 393.693 103.159 394.288 104.157C394.884 105.155 395.482 106.16 396.082 107.172C396.683 108.186 397.285 109.203 397.887 110.224C398.489 111.244 399.093 112.271 399.699 113.303C400.305 114.335 400.912 115.371 401.519 116.411C402.127 117.45 402.736 118.496 403.346 119.548L403.571 119.934L403.795 120.321L404.02 120.707L404.244 121.093C404.26 121.123 404.281 121.149 404.307 121.171C404.333 121.192 404.363 121.208 404.395 121.217C404.422 121.224 404.451 121.225 404.478 121.22C404.505 121.215 404.532 121.205 404.555 121.19C404.603 121.159 404.638 121.111 404.651 121.055C404.666 120.986 404.653 120.915 404.615 120.855C403.998 119.791 403.381 118.731 402.765 117.674C402.149 116.617 401.535 115.566 400.923 114.522C400.311 113.477 399.699 112.437 399.088 111.399C398.477 110.362 397.868 109.332 397.261 108.309C396.652 107.282 396.044 106.258 395.436 105.237C394.829 104.217 394.223 103.202 393.62 102.195C393.016 101.187 392.413 100.182 391.811 99.1807C391.208 98.1794 390.607 97.1842 390.007 96.1951C389.408 95.206 388.81 94.2202 388.212 93.2377C387.615 92.2552 387.019 91.2788 386.426 90.3084C385.832 89.3381 385.239 88.371 384.646 87.4073C384.053 86.4436 383.463 85.4859 382.874 84.5343L382.433 83.8231L381.992 83.1136L381.55 82.4056L381.109 81.6994C380.986 81.5011 380.863 81.3027 380.739 81.1041C380.616 80.9054 380.492 80.7085 380.367 80.5131C380.242 80.3178 380.115 80.1247 379.986 79.9338C379.858 79.7429 379.727 79.5557 379.592 79.3721C379.348 79.0362 379.086 78.714 378.807 78.4071C378.54 78.1121 378.247 77.8409 377.933 77.5965C377.641 77.3673 377.32 77.1779 376.978 77.0332C376.645 76.8949 376.29 76.819 375.93 76.8092C375.717 76.8189 375.505 76.8414 375.295 76.8765C375.085 76.9117 374.876 76.9592 374.671 77.0189C374.464 77.0792 374.26 77.1514 374.061 77.2351C373.858 77.3205 373.66 77.417 373.468 77.5243L372.834 77.8299L372.203 78.1362L371.573 78.4424L370.948 78.7475L365.958 81.167L364.728 81.764C364.701 81.7774 364.677 81.7963 364.658 81.8193C364.639 81.8424 364.625 81.8692 364.617 81.898C364.6 81.9577 364.597 82.0208 364.609 82.0818C364.618 82.1365 364.644 82.1869 364.683 82.2258C364.702 82.2432 364.726 82.2541 364.751 82.2568C364.777 82.2595 364.803 82.2538 364.825 82.2407Z" fill="white"/>
<path d="M315.428 52.3494L315.198 52.6252C314.778 51.7766 314.22 51.003 313.548 50.3355C312.981 49.7708 312.301 49.3332 311.552 49.0515C310.861 48.7978 310.117 48.72 309.389 48.8253C308.612 48.9472 307.873 49.247 307.231 49.7015C306.503 50.2161 305.87 50.8541 305.361 51.5868C304.796 52.3948 304.337 53.2728 303.998 54.1989C303.626 55.2031 303.364 56.2449 303.218 57.3058C303.061 58.4257 303.022 59.559 303.102 60.687C303.141 61.2495 303.21 61.8094 303.311 62.3643C303.407 62.8993 303.535 63.4283 303.694 63.9484C303.845 64.4461 304.028 64.9335 304.242 65.4078C304.445 65.8589 304.68 66.2946 304.946 66.7116L304.752 67.0161C304.475 66.5819 304.23 66.1281 304.019 65.6583C303.796 65.1647 303.605 64.6573 303.448 64.1393C303.283 63.598 303.15 63.0475 303.05 62.4906C302.945 61.9132 302.873 61.3303 302.833 60.7449C302.75 59.5711 302.79 58.3917 302.953 57.2263C303.106 56.1222 303.377 55.0378 303.764 53.9925C304.117 53.0284 304.594 52.1142 305.183 51.2729C305.712 50.5097 306.37 49.845 307.129 49.3086C307.797 48.8345 308.566 48.5212 309.375 48.3933C310.134 48.2827 310.908 48.3627 311.628 48.6261C312.408 48.9186 313.117 49.3737 313.708 49.9614C314.409 50.6574 314.99 51.4642 315.428 52.3494Z" fill="white"/>
<path d="M338.702 80.715C338.654 80.6724 338.611 80.6244 338.574 80.5721C338.534 80.5165 338.499 80.4572 338.471 80.395C338.44 80.329 338.415 80.2605 338.396 80.1903C338.376 80.1163 338.362 80.0409 338.354 79.9646C338.345 79.8873 338.343 79.8095 338.346 79.7318C338.349 79.6556 338.359 79.5798 338.374 79.505C338.388 79.4325 338.408 79.3613 338.434 79.2921C338.459 79.2257 338.49 79.1618 338.527 79.1011L337.569 65.2521L339.169 65.3624L339.615 79.046C339.683 79.1457 339.735 79.2553 339.77 79.3709C339.806 79.4915 339.828 79.6163 339.833 79.7423C339.838 79.8693 339.827 79.9964 339.801 80.1208C339.776 80.2422 339.733 80.3593 339.674 80.4684C339.622 80.5661 339.553 80.6535 339.469 80.7261C339.399 80.7895 339.315 80.8359 339.224 80.8618C339.137 80.8845 339.046 80.8845 338.959 80.8618C338.863 80.8338 338.775 80.7836 338.702 80.715Z" fill="#9E616A"/>
<path d="M339.822 64.6767L339.4 69.2982L339.459 72.1232L337.697 72.3731L337.345 70.0381L337.151 63.8529C337.143 63.6192 337.167 63.3856 337.222 63.1582C337.271 62.9496 337.349 62.7491 337.455 62.5629C337.549 62.395 337.673 62.2454 337.82 62.1215C337.953 62.0091 338.113 61.9313 338.283 61.8947C338.452 61.8603 338.626 61.8748 338.787 61.9366C338.954 62.0032 339.103 62.1076 339.223 62.2418C339.36 62.3947 339.469 62.5706 339.545 62.7615C339.634 62.9807 339.69 63.2118 339.711 63.4474L339.822 64.6767Z" fill="#2F2E41"/>
<path d="M333.141 104.829L332.102 104.758L331.609 98.8805L333.141 98.9627V104.829Z" fill="#9E616A"/>
<path d="M333.406 106.322L330.07 106.085V106.024C330.069 105.776 330.103 105.531 330.171 105.293C330.23 105.085 330.323 104.887 330.447 104.709C330.554 104.554 330.695 104.424 330.858 104.33C331.011 104.243 331.187 104.203 331.362 104.214L333.407 104.35L333.406 106.322Z" fill="#2F2E41"/>
<path d="M341.923 105.422L340.84 105.348L340.326 99.3468L341.923 99.4329V105.422Z" fill="#9E616A"/>
<path d="M342.197 106.946L338.722 106.699V106.636C338.721 106.384 338.757 106.133 338.828 105.891C338.889 105.677 338.987 105.476 339.116 105.295C339.228 105.136 339.374 105.004 339.544 104.909C339.704 104.821 339.886 104.78 340.069 104.792L342.197 104.933V106.946Z" fill="#2F2E41"/>
<path d="M337.742 53.0654C338.056 53.0492 338.368 53.1231 338.642 53.2784C338.935 53.4472 339.187 53.6784 339.38 53.9554C339.602 54.2716 339.77 54.6225 339.877 54.9938C340 55.4145 340.062 55.8509 340.06 56.2894C340.061 56.7333 339.999 57.1753 339.877 57.602C339.768 57.9874 339.601 58.3537 339.38 58.6878C339.186 58.9835 338.935 59.2373 338.642 59.4344C338.374 59.6135 338.063 59.7165 337.742 59.7323C337.428 59.7434 337.117 59.665 336.845 59.5061C336.556 59.3341 336.307 59.1012 336.116 58.8236C335.897 58.5084 335.731 58.1593 335.625 57.7901C335.504 57.3733 335.444 56.9413 335.446 56.5073C335.445 56.0679 335.505 55.6306 335.625 55.2079C335.732 54.8248 335.898 54.4605 336.116 54.1276C336.307 53.8324 336.555 53.578 336.845 53.3788C337.11 53.1955 337.42 53.0872 337.742 53.0654Z" fill="#9E616A"/>
<path d="M337.444 61.0963L339.051 61.3032C339.253 61.7121 339.416 62.1395 339.536 62.5794C339.661 63.0357 339.747 63.5018 339.792 63.9726C339.84 64.4545 339.847 64.9395 339.815 65.4226C339.784 65.9086 339.711 66.3911 339.599 66.8649L338.385 71.9494C338.385 71.9494 338.49 72.2523 338.648 72.777C338.806 73.3017 339.017 74.0515 339.228 74.9426C339.439 75.8337 339.651 76.8688 339.809 77.964C339.978 79.0848 340.066 80.2162 340.074 81.3496C340.14 83.0791 340.308 84.8031 340.579 86.5124C340.883 88.6786 341.289 91.1472 341.695 93.4756C342.102 95.804 342.511 98.0055 342.817 99.6194C343.124 101.233 343.329 102.268 343.329 102.268L338.761 102.673L336.797 85.4431L334.121 102.32L331.108 101.422L332.763 79.3887L333.863 72.0923L333.91 68.5296C333.91 68.5296 333.88 68.3641 333.854 68.0882C333.821 67.7214 333.81 67.3528 333.821 66.9847C333.835 66.5024 333.898 66.0228 334.009 65.5534C334.126 65.0464 334.331 64.564 334.616 64.1282L336.059 61.1587L337.444 61.0963Z" fill="#CACACA"/>
<path d="M335.068 55.342L338.444 55.1726V53.0345C338.265 52.9375 338.08 52.8504 337.892 52.7736C337.726 52.7029 337.551 52.657 337.373 52.6373C337.213 52.6199 337.053 52.6509 336.911 52.7261C336.748 52.8244 336.616 52.9682 336.533 53.1399C336.328 53.1537 336.131 53.2227 335.962 53.3397C335.776 53.4676 335.618 53.631 335.496 53.8203C335.357 54.033 335.251 54.2658 335.183 54.5105C335.106 54.781 335.067 55.0608 335.068 55.342Z" fill="#2F2E41"/>
<path d="M338.635 52.6462C338.873 52.6341 339.111 52.6763 339.331 52.7695C339.551 52.8626 339.746 53.0044 339.903 53.1841C340.271 53.6074 340.545 54.1028 340.709 54.6386C340.91 55.2468 341.052 55.873 341.132 56.5085C341.212 57.0983 341.253 57.6927 341.255 58.2879C341.258 58.5372 341.236 58.7863 341.189 59.0311C341.155 59.2109 341.091 59.3838 340.999 59.5426C340.924 59.6704 340.823 59.7807 340.702 59.8665C340.583 59.948 340.451 60.0086 340.312 60.0458L340.109 58.5009L339.634 60.1401L339.512 60.1446L339.387 60.1479H339.129L338.968 59.6789L338.611 60.1594C338.255 60.1738 337.915 60.2063 337.607 60.2146C337.332 60.2337 337.056 60.2032 336.791 60.1247C336.672 60.0846 336.562 60.021 336.468 59.9376C336.374 59.8542 336.297 59.7527 336.243 59.6391C336.091 59.283 336.022 58.8966 336.042 58.5097C336.043 57.9186 336.08 57.328 336.152 56.7413C336.226 56.1005 336.359 55.4678 336.55 54.8516C336.711 54.2956 336.98 53.7767 337.341 53.3243C337.497 53.1275 337.693 52.9655 337.916 52.8487C338.139 52.732 338.384 52.663 338.635 52.6462Z" fill="#2F2E41"/>
<path opacity="0.2" d="M335.642 72.9866L335.557 67.6395L335.332 65.2703L334.777 67.6345L335.642 72.9866Z" fill="black"/>
<path d="M339.909 72.2312L337.35 72.2566V61.4472L339.909 61.3567C340.163 61.3492 340.414 61.4134 340.633 61.5421C340.868 61.6813 341.071 61.8695 341.226 62.0938C341.405 62.3493 341.541 62.6324 341.627 62.9319C341.727 63.2697 341.777 63.62 341.775 63.972V69.5315C341.776 69.8851 341.726 70.237 341.627 70.5765C341.54 70.8814 341.405 71.1704 341.226 71.4328C341.071 71.6649 340.869 71.8625 340.633 72.0133C340.417 72.152 340.166 72.2283 339.909 72.234V72.2312Z" fill="#021D49"/>
<path d="M339.551 66.4147C339.507 66.4154 339.463 66.4038 339.425 66.381C339.384 66.3563 339.349 66.3232 339.322 66.2839C339.291 66.2393 339.268 66.1899 339.253 66.1377C339.236 66.0789 339.227 66.018 339.227 65.9567V61.9239L339.875 61.9019V65.9407C339.875 66.0023 339.866 66.0636 339.849 66.1228C339.834 66.176 339.81 66.2265 339.779 66.2723C339.752 66.313 339.716 66.3477 339.676 66.3744C339.638 66.3988 339.594 66.4126 339.55 66.4141L339.551 66.4147Z" fill="#3F3D56"/>
<path d="M340.33 71.3722L338.451 71.3948C338.395 71.3952 338.34 71.3799 338.293 71.3507C338.241 71.3188 338.197 71.2765 338.164 71.2265C338.125 71.17 338.095 71.1076 338.076 71.0417C338.055 70.9677 338.044 70.8909 338.044 70.8138V69.201C338.044 69.1238 338.055 69.0469 338.076 68.9726C338.096 68.9063 338.125 68.8434 338.164 68.7861C338.197 68.7347 338.241 68.6907 338.293 68.657C338.34 68.6264 338.395 68.6094 338.451 68.6079L340.33 68.5731C340.387 68.5725 340.442 68.5876 340.49 68.6167C340.542 68.6483 340.586 68.6904 340.621 68.7403C340.66 68.7971 340.69 68.8599 340.709 68.9263C340.731 69.0006 340.742 69.0777 340.741 69.1552V70.778C340.741 70.8556 340.731 70.9329 340.709 71.0075C340.689 71.0745 340.66 71.138 340.621 71.1956C340.586 71.247 340.542 71.2907 340.49 71.3242C340.442 71.3546 340.387 71.3712 340.33 71.3722Z" fill="#3F3D56"/>
<path d="M335.022 68.1654C334.894 67.9314 334.784 67.6885 334.691 67.4387C334.594 67.1797 334.515 66.9146 334.453 66.6453C334.389 66.3674 334.342 66.0858 334.312 65.8022C334.282 65.5121 334.269 65.2204 334.273 64.9288C334.272 64.3662 334.329 63.805 334.444 63.2542C334.541 62.777 334.696 62.3136 334.908 61.8748C335.074 61.5167 335.308 61.1943 335.597 60.9252C335.827 60.707 336.126 60.5758 336.443 60.5544C336.619 60.561 336.792 60.6001 336.954 60.6698C337.123 60.7436 337.28 60.844 337.417 60.9672C337.569 61.1024 337.702 61.2571 337.813 61.4273C337.937 61.6164 338.039 61.8189 338.118 62.0309L337.936 62.202C337.867 62.0117 337.776 61.8298 337.666 61.6596C337.568 61.5065 337.449 61.367 337.314 61.2447C337.192 61.1322 337.052 61.04 336.9 60.9716C336.756 60.907 336.601 60.8696 336.443 60.8612C336.156 60.8813 335.885 61.003 335.679 61.2044C335.417 61.4553 335.206 61.7543 335.057 62.085C334.865 62.494 334.725 62.9248 334.637 63.3678C334.534 63.8798 334.483 64.4009 334.484 64.9232C334.48 65.197 334.492 65.4708 334.52 65.7432C334.547 66.0093 334.591 66.2736 334.651 66.5344C334.708 66.7874 334.782 67.0364 334.871 67.2798C334.958 67.5146 335.062 67.7429 335.181 67.9629L335.022 68.1654Z" fill="#021D49"/>
<path d="M336.051 81.2464C336.001 81.1962 335.956 81.1407 335.918 81.0809C335.877 81.016 335.842 80.9475 335.813 80.8762C335.783 80.8019 335.759 80.7254 335.741 80.6472C335.723 80.5653 335.71 80.4821 335.704 80.3983C335.698 80.3139 335.698 80.229 335.704 80.1445C335.711 80.0622 335.724 79.9805 335.743 79.9001C335.761 79.8228 335.786 79.7471 335.817 79.6739C335.848 79.6039 335.885 79.5371 335.928 79.4742L335.456 64.3235L337.184 64.5762L337.107 79.5139C337.176 79.6279 337.228 79.7515 337.261 79.8808C337.332 80.1484 337.335 80.4298 337.267 80.6985C337.234 80.8281 337.181 80.952 337.111 81.066C337.051 81.1674 336.972 81.2564 336.878 81.328C336.797 81.3898 336.703 81.4313 336.602 81.4489C336.506 81.4651 336.408 81.4564 336.317 81.4235C336.215 81.3857 336.122 81.3253 336.047 81.247L336.051 81.2464Z" fill="#9E616A"/>
<path d="M337.918 63.8821L337.272 68.8822L337.22 71.9632L335.303 72.0862L335.019 69.5167L335.061 62.7626C335.062 62.5086 335.097 62.2559 335.165 62.0112C335.225 61.7889 335.318 61.5768 335.441 61.3816C335.549 61.2071 335.689 61.0546 335.854 60.9319C336.004 60.8201 336.18 60.7481 336.365 60.7228C336.551 60.6994 336.74 60.7296 336.909 60.81C337.088 60.8968 337.245 61.0227 337.369 61.1785C337.511 61.3564 337.622 61.5571 337.697 61.7722C337.783 62.0175 337.834 62.2739 337.846 62.5337L337.918 63.8821Z" fill="#CACACA"/>
<path d="M338.104 109.003C338.121 108.937 338.153 108.877 338.199 108.826C338.244 108.775 338.3 108.736 338.363 108.712C338.528 108.651 338.705 108.632 338.879 108.656C339.118 108.685 339.353 108.745 339.578 108.834C339.859 108.943 340.131 109.077 340.388 109.235C340.66 109.4 340.919 109.587 341.16 109.795C341.376 109.978 341.575 110.181 341.753 110.402C341.899 110.579 342.019 110.776 342.108 110.988C342.178 111.14 342.198 111.312 342.166 111.477C342.148 111.543 342.115 111.604 342.069 111.655C342.023 111.706 341.966 111.745 341.902 111.769C341.734 111.829 341.555 111.846 341.379 111.82C341.138 111.789 340.901 111.728 340.675 111.638C340.393 111.527 340.121 111.392 339.863 111.232C339.592 111.067 339.336 110.88 339.095 110.673C338.882 110.49 338.686 110.286 338.51 110.066C338.366 109.891 338.249 109.696 338.161 109.487C338.092 109.335 338.072 109.166 338.104 109.003Z" fill="white"/>
<path d="M345.46 109.081C345.486 109.02 345.527 108.967 345.58 108.928C345.634 108.888 345.696 108.863 345.762 108.856C345.945 108.838 346.129 108.863 346.299 108.93C346.544 109.019 346.778 109.137 346.997 109.28C347.275 109.458 347.539 109.658 347.785 109.879C348.045 110.111 348.287 110.361 348.511 110.627C348.71 110.863 348.889 111.115 349.046 111.38C349.173 111.589 349.272 111.814 349.339 112.05C349.393 112.212 349.393 112.387 349.339 112.549C349.313 112.611 349.27 112.664 349.216 112.704C349.162 112.743 349.098 112.767 349.032 112.774C348.847 112.791 348.661 112.764 348.488 112.694C348.241 112.603 348.006 112.484 347.786 112.338C347.508 112.157 347.245 111.955 347 111.732C346.742 111.501 346.501 111.252 346.279 110.987C346.082 110.753 345.905 110.503 345.75 110.24C345.624 110.032 345.527 109.809 345.46 109.576C345.407 109.416 345.407 109.242 345.46 109.081Z" fill="white"/>
<path d="M348.88 116.446C348.904 116.383 348.945 116.327 348.997 116.285C349.05 116.242 349.112 116.214 349.179 116.204C349.362 116.176 349.549 116.193 349.725 116.253C349.975 116.331 350.216 116.438 350.442 116.572C350.728 116.739 351.001 116.929 351.257 117.14C351.528 117.362 351.782 117.603 352.017 117.861C352.227 118.09 352.416 118.335 352.584 118.596C352.72 118.801 352.827 119.024 352.903 119.258C352.963 119.42 352.969 119.597 352.919 119.763C352.894 119.826 352.853 119.882 352.8 119.924C352.746 119.967 352.683 119.994 352.615 120.004C352.43 120.03 352.241 120.011 352.064 119.949C351.811 119.868 351.568 119.759 351.34 119.623C351.053 119.455 350.781 119.264 350.525 119.052C350.256 118.83 350.003 118.589 349.769 118.331C349.563 118.104 349.375 117.86 349.209 117.601C349.076 117.398 348.971 117.177 348.896 116.946C348.838 116.785 348.832 116.61 348.88 116.446Z" fill="white"/>
<path d="M356.215 119.537C356.241 119.472 356.282 119.416 356.337 119.373C356.391 119.33 356.456 119.302 356.524 119.293C356.714 119.266 356.907 119.285 357.088 119.348C357.348 119.429 357.597 119.541 357.831 119.679C358.127 119.85 358.409 120.044 358.674 120.261C358.953 120.487 359.216 120.733 359.459 120.998C359.676 121.232 359.872 121.483 360.046 121.75C360.187 121.959 360.298 122.187 360.377 122.426C360.439 122.591 360.445 122.771 360.394 122.939C360.368 123.004 360.325 123.061 360.27 123.104C360.214 123.146 360.149 123.174 360.079 123.183C359.887 123.208 359.691 123.187 359.507 123.123C359.246 123.04 358.995 122.927 358.759 122.786C358.463 122.613 358.18 122.417 357.915 122.198C357.638 121.972 357.377 121.725 357.135 121.46C356.922 121.228 356.728 120.979 356.557 120.714C356.419 120.507 356.309 120.282 356.232 120.045C356.171 119.882 356.165 119.703 356.215 119.537Z" fill="white"/>
<path d="M321.349 57.0183C320.861 56.6741 320.314 56.4234 319.734 56.2789C319.191 56.1469 318.627 56.1242 318.075 56.2122C317.506 56.3058 316.958 56.5033 316.46 56.7948C315.906 57.1204 315.405 57.5293 314.975 58.007C315.836 58.1942 316.698 58.4015 317.562 58.6288C318.426 58.8562 319.294 59.1048 320.167 59.3748C321.04 59.6452 321.914 59.9359 322.788 60.2471C323.662 60.5583 324.54 60.8918 325.422 61.2475C325.051 60.9305 324.702 60.5879 324.378 60.2223C324.043 59.8526 323.716 59.462 323.393 59.0763C323.07 58.6906 322.742 58.3105 322.405 57.959C322.081 57.6147 321.728 57.2999 321.349 57.0183Z" fill="white"/>
<path d="M314.955 58.0021L314.578 58.4882C314.61 58.4459 314.642 58.4041 314.675 58.3629C314.707 58.3217 314.74 58.2811 314.773 58.241C314.806 58.2009 314.839 58.1615 314.873 58.1229C314.907 58.0843 314.941 58.0458 314.975 58.0076L314.955 58.0021Z" fill="#F2F2F2"/>
<path d="M378.584 82.4399C378.474 82.2231 378.351 82.0134 378.215 81.812C378.084 81.6186 377.939 81.4343 377.783 81.2602C377.633 81.0933 377.471 80.9374 377.297 80.794C377.131 80.6556 376.954 80.5305 376.768 80.4199L376.063 80.4508C377.407 83.6072 378.876 86.682 380.469 89.6751C382.072 92.6858 383.799 95.6072 385.649 98.4392C387.513 101.29 389.498 104.043 391.607 106.698C393.733 109.373 395.982 111.94 398.354 114.399L393.257 106.158L388.264 98.0877L383.374 90.1832L378.584 82.4399Z" fill="white"/>
<path d="M282.15 277H0.65687C0.483001 276.999 0.316421 276.93 0.193655 276.807C0.0708887 276.684 0.00195312 276.517 0.00195312 276.343C0.00195312 276.169 0.0708887 276.002 0.193655 275.879C0.316421 275.756 0.483001 275.687 0.65687 275.686H282.15C282.324 275.686 282.491 275.755 282.615 275.878C282.738 276.002 282.807 276.169 282.807 276.343C282.807 276.517 282.738 276.684 282.615 276.808C282.491 276.931 282.324 277 282.15 277Z" fill="#CACACA"/>
<path d="M97.7003 116.14C97.4111 116.14 97.1293 116.049 96.8945 115.88C96.6597 115.711 96.4838 115.473 96.3915 115.199L95.6896 113.107C95.6307 112.935 95.6064 112.753 95.6181 112.571C95.6298 112.39 95.6772 112.212 95.7577 112.049C95.8382 111.886 95.9501 111.741 96.0871 111.621C96.224 111.501 96.3833 111.41 96.5557 111.352C96.728 111.294 96.9102 111.271 97.0915 111.284C97.2729 111.297 97.45 111.345 97.6125 111.427C97.775 111.509 97.9198 111.621 98.0386 111.759C98.1574 111.897 98.2477 112.057 98.3045 112.229L99.0064 114.321C99.1223 114.668 99.0959 115.047 98.933 115.374C98.7702 115.702 98.4842 115.951 98.1377 116.068C97.9969 116.116 97.849 116.14 97.7003 116.14Z" fill="#3F3D56"/>
<path d="M99.3022 121.673C99.0025 121.672 98.7113 121.574 98.4724 121.393C98.2335 121.212 98.0599 120.959 97.9778 120.67L97.3744 118.547C97.2749 118.196 97.319 117.819 97.4971 117.5C97.6752 117.18 97.9727 116.945 98.3243 116.845C98.6759 116.745 99.0527 116.789 99.3721 116.966C99.6915 117.144 99.9272 117.442 100.028 117.793L100.631 119.916C100.68 120.09 100.695 120.273 100.674 120.453C100.653 120.633 100.597 120.807 100.509 120.965C100.421 121.123 100.302 121.262 100.16 121.375C100.018 121.487 99.8554 121.571 99.6811 121.62C99.5579 121.655 99.4303 121.673 99.3022 121.673Z" fill="#3F3D56"/>
</g>
<defs>
<clipPath id="clip0_239_91">
<rect width="433" height="277" fill="white"/>
</clipPath>
</defs>
</svg>
