<svg width="64" height="64" viewBox="0 0 64 64" fill="none" xmlns="http://www.w3.org/2000/svg">
<path d="M56.0002 10.6667H48.0002V7.99999C48.0002 7.29275 47.7192 6.61447 47.2191 6.11438C46.719 5.61428 46.0407 5.33333 45.3335 5.33333H18.6668C17.9596 5.33333 17.2813 5.61428 16.7812 6.11438C16.2811 6.61447 16.0002 7.29275 16.0002 7.99999V10.6667H8.00016C7.29292 10.6667 6.61464 10.9476 6.11454 11.4477C5.61445 11.9478 5.3335 12.6261 5.3335 13.3333V21.3333C5.3335 32.8267 10.1335 39.76 18.1868 40C19.3619 42.0319 20.9696 43.7804 22.8959 45.1214C24.8223 46.4625 27.0201 47.3633 29.3335 47.76V53.3333H24.0002V58.6667H40.0002V53.3333H34.6668V47.76C36.9802 47.3633 39.1781 46.4625 41.1044 45.1214C43.0308 43.7804 44.6385 42.0319 45.8135 40C53.8135 39.7333 58.6668 32.8 58.6668 21.3333V13.3333C58.6668 12.6261 58.3859 11.9478 57.8858 11.4477C57.3857 10.9476 56.7074 10.6667 56.0002 10.6667ZM10.6668 21.3333V16H16.0002V34.2133C11.2535 32.2133 10.6668 24.8 10.6668 21.3333ZM48.0002 34.2133V16H53.3335V21.3333C53.3335 24.8 52.7468 32.2133 48.0002 34.2133Z" fill="white"/>
</svg>
