<?xml version="1.0" encoding="utf-8"?>
<!-- Generator: Adobe Illustrator 24.3.0, SVG Export Plug-In . SVG Version: 6.00 Build 0)  -->
<svg version="1.1" id="Capa_1" xmlns="http://www.w3.org/2000/svg" xmlns:xlink="http://www.w3.org/1999/xlink" x="0px" y="0px"
	 viewBox="0 0 24 24" style="enable-background:new 0 0 24 24;" xml:space="preserve">
<style type="text/css">
	.st0{fill:#FFFFFF;}
</style>
<path class="st0" d="M21,6h-2V3h-2v3H7V3H5v3H3C2.4,6,2,6.4,2,7v7c0,0.6,0.4,1,1,1h2v6h2v-6h10v6h2v-6h2c0.6,0,1-0.4,1-1V7
	C22,6.4,21.6,6,21,6z M4.4,13l2.9-5h2.3l-2.9,5H4.4z M12.3,8h2.3l-2.9,5H9.4L12.3,8z M17.3,8h2.3l-2.9,5h-2.3L17.3,8z"/>
</svg>
