<?xml version="1.0" encoding="utf-8"?>
<!-- Generator: Adobe Illustrator 24.3.0, SVG Export Plug-In . SVG Version: 6.00 Build 0)  -->
<svg version="1.1" id="Capa_1" xmlns="http://www.w3.org/2000/svg" xmlns:xlink="http://www.w3.org/1999/xlink" x="0px" y="0px"
	 viewBox="0 0 24 24" style="enable-background:new 0 0 24 24;" xml:space="preserve">
<style type="text/css">
	.st0{fill:#FFFFFF;}
</style>
<path class="st0" d="M7,14h2v2H7V14z"/>
<path class="st0" d="M19,2h-8C9.9,2,9,2.9,9,4v6H5c-1.1,0-2,0.9-2,2v9c0,0.6,0.4,1,1,1h16c0.6,0,1-0.4,1-1V4C21,2.9,20.1,2,19,2z
	 M5,20v-8h6v8H5z M14,8h-2V6h2V8z M18,16h-2v-2h2V16z M18,12h-2v-2h2V12z M18,8h-2V6h2V8z"/>
</svg>
