<svg width="21" height="20" viewBox="0 0 21 20" fill="none" xmlns="http://www.w3.org/2000/svg">
<path d="M5.40363 11.6666H15.6467V10.4166H5.40363V11.6666ZM5.40363 8.95829H15.6467V7.70829H5.40363V8.95829ZM5.40363 6.24996H15.6467V4.99996H5.40363V6.24996ZM19.0611 18.3333L15.6467 15H3.26965C2.92821 15 2.62945 14.875 2.37337 14.625C2.1173 14.375 1.98926 14.0833 1.98926 13.75V2.91663C1.98926 2.58329 2.1173 2.29163 2.37337 2.04163C2.62945 1.79163 2.92821 1.66663 3.26965 1.66663H17.7807C18.1222 1.66663 18.4209 1.79163 18.677 2.04163C18.9331 2.29163 19.0611 2.58329 19.0611 2.91663V18.3333ZM16.2016 13.75L17.7807 15.4166V2.91663H3.26965V13.75H16.2016Z" fill="black"/>
</svg>
