<svg width="22" height="20" viewBox="0 0 22 20" fill="none" xmlns="http://www.w3.org/2000/svg">
<path d="M10.8992 17.4792L10.0243 16.7084C8.51956 15.3595 7.27556 14.1959 6.29228 13.2175C5.309 12.2392 4.52572 11.3646 3.94243 10.5938C3.35914 9.82296 2.95013 9.12504 2.71539 8.50004C2.48065 7.87504 2.36328 7.2431 2.36328 6.60421C2.36328 5.35205 2.79363 4.30638 3.65434 3.46719C4.51505 2.62798 5.57848 2.20837 6.84464 2.20837C7.65556 2.20837 8.40601 2.39587 9.09599 2.77087C9.78598 3.14587 10.3871 3.68754 10.8992 4.39587C11.4967 3.64587 12.1298 3.09379 12.7985 2.73962C13.4671 2.38546 14.1855 2.20837 14.9538 2.20837C16.2199 2.20837 17.2834 2.62798 18.1441 3.46719C19.0048 4.30638 19.4351 5.35205 19.4351 6.60421C19.4351 7.2431 19.3178 7.87504 19.083 8.50004C18.8483 9.12504 18.4393 9.82296 17.856 10.5938C17.2727 11.3646 16.4894 12.2392 15.5061 13.2175C14.5229 14.1959 13.2789 15.3595 11.7741 16.7084L10.8992 17.4792ZM10.8992 15.8334C12.3394 14.5418 13.5246 13.4342 14.4548 12.5105C15.385 11.5869 16.1239 10.7778 16.6716 10.0834C17.2193 9.38893 17.6035 8.76994 17.824 8.22639C18.0445 7.68284 18.1547 7.14312 18.1547 6.60723C18.1547 5.68855 17.856 4.93407 17.2585 4.34379C16.661 3.75351 15.8943 3.45837 14.9586 3.45837C14.2256 3.45837 13.5471 3.67712 12.9233 4.11462C12.2995 4.55212 11.7955 5.16671 11.4114 5.95837H10.3657C9.99582 5.1806 9.49896 4.56949 8.87513 4.12504C8.25128 3.6806 7.57285 3.45837 6.83984 3.45837C5.90409 3.45837 5.13746 3.75351 4.53994 4.34379C3.94243 4.93407 3.64367 5.68973 3.64367 6.61079C3.64367 7.14807 3.75393 7.69101 3.97444 8.23962C4.19495 8.78824 4.57907 9.41324 5.12679 10.1146C5.67451 10.816 6.41785 11.625 7.3568 12.5417C8.29575 13.4584 9.47655 14.5556 10.8992 15.8334Z" fill="black"/>
</svg>
