<svg xmlns="http://www.w3.org/2000/svg" viewBox="0 0 484.07 217.23"><defs><style>.cls-1{fill:#fff;}</style></defs><g id="Capa_2" data-name="Capa 2"><g id="Capa_1-2" data-name="Capa 1"><path class="cls-1" d="M73.91,139.94l-32.7-54.5H28.92v54.5H1V0H54.29Q78.68,0,91.45,11.9t12.79,31.32q0,15.86-8.82,26.56T70,84l34.88,55.9Zm-45-73.74h23q24,0,24-21.19,0-10.12-5.84-15.77T51.91,23.6h-23Z"/><path class="cls-1" d="M151,22.2V58.48h49.55V79.89H151v37.65h55.49v22.4H123.07V0h83.44V22.2Z"/><path class="cls-1" d="M345.65,139.94H317.71L255.07,44.8v95.14H227.12V0h27.95l62.64,95.94V0h27.94Z"/><path class="cls-1" d="M466.15,0V22.2H427.5V139.94H399.56V22.2H361.11V0Z"/><path class="cls-1" d="M41,208.65a16.54,16.54,0,0,1-6.84,6.23,23.6,23.6,0,0,1-11,2.35,28.65,28.65,0,0,1-11.45-2.17,19.43,19.43,0,0,1-8.07-6.28,18.18,18.18,0,0,1-3.46-9.57H13a9.84,9.84,0,0,0,2.95,6.11,9.24,9.24,0,0,0,6.7,2.43,7.8,7.8,0,0,0,5.77-2,7,7,0,0,0,2-5.17,6.76,6.76,0,0,0-1.63-4.66A11.83,11.83,0,0,0,24.69,193q-2.49-1.11-6.84-2.57a67.54,67.54,0,0,1-9.22-3.71,17,17,0,0,1-6.11-5.34A15.28,15.28,0,0,1,0,172.22Q0,164.45,5.6,160t14.81-4.48q9.57,0,15.25,4.61a17.41,17.41,0,0,1,6.45,12.3h-13a9.13,9.13,0,0,0-2.74-5.34A8.5,8.5,0,0,0,20.33,165,8,8,0,0,0,15,166.71a7.13,7.13,0,0,0-.47,9.48,11.85,11.85,0,0,0,4,2.86,65.35,65.35,0,0,0,6.62,2.48,87.92,87.92,0,0,1,9.44,3.85,16.51,16.51,0,0,1,6.19,5.38,15.79,15.79,0,0,1,2.57,9.39A16.32,16.32,0,0,1,41,208.65Z"/><path class="cls-1" d="M95.79,159.41a28.55,28.55,0,0,1,10.85,11,34,34,0,0,1,0,31.9,28.42,28.42,0,0,1-10.85,11,31.86,31.86,0,0,1-30.66,0,28.36,28.36,0,0,1-10.85-11,34,34,0,0,1,0-31.9,28.48,28.48,0,0,1,10.85-11,31.86,31.86,0,0,1,30.66,0ZM71.15,169a16.3,16.3,0,0,0-6.28,6.87,25.36,25.36,0,0,0,0,20.93,16.3,16.3,0,0,0,6.28,6.87,19.33,19.33,0,0,0,18.62,0,16.3,16.3,0,0,0,6.28-6.87,25.36,25.36,0,0,0,0-20.93A16.3,16.3,0,0,0,89.77,169a19.26,19.26,0,0,0-18.62,0Z"/><path class="cls-1" d="M131.71,207.41H152v9.23H119.66V156.33h12.05Z"/><path class="cls-1" d="M170.74,156.33V191.7q0,7.08,3.12,10.63t9,3.54q5.81,0,8.92-3.54t3.12-10.63V156.33h12V191.7a29.34,29.34,0,0,1-3.12,14.13,20.07,20.07,0,0,1-8.62,8.59,27.24,27.24,0,0,1-12.52,2.81q-10.85,0-17.34-6.49t-6.49-19V156.33Z"/><path class="cls-1" d="M258.46,156.33v9.57H241.81v50.74H229.76V165.9H213.19v-9.57Z"/><path class="cls-1" d="M277.16,156.33v60.31h-12V156.33Z"/><path class="cls-1" d="M331.7,159.41a28.55,28.55,0,0,1,10.85,11,34,34,0,0,1,0,31.9,28.42,28.42,0,0,1-10.85,11,31.86,31.86,0,0,1-30.66,0,28.36,28.36,0,0,1-10.85-11,34,34,0,0,1,0-31.9,28.48,28.48,0,0,1,10.85-11,31.86,31.86,0,0,1,30.66,0ZM307.06,169a16.3,16.3,0,0,0-6.28,6.87,25.36,25.36,0,0,0,0,20.93,16.3,16.3,0,0,0,6.28,6.87,19.33,19.33,0,0,0,18.62,0,16.3,16.3,0,0,0,6.28-6.87,25.36,25.36,0,0,0,0-20.93,16.3,16.3,0,0,0-6.28-6.87,19.26,19.26,0,0,0-18.62,0Z"/><path class="cls-1" d="M406.65,216.64h-12l-27-41v41H355.57V156.33h12.05l27,41.34V156.33h12Z"/><path class="cls-1" d="M456.7,208.65a16.58,16.58,0,0,1-6.83,6.23,23.65,23.65,0,0,1-11,2.35,28.65,28.65,0,0,1-11.45-2.17,19.49,19.49,0,0,1-8.07-6.28,18.18,18.18,0,0,1-3.46-9.57h12.82a9.78,9.78,0,0,0,2.94,6.11,9.26,9.26,0,0,0,6.71,2.43,7.78,7.78,0,0,0,5.76-2,7,7,0,0,0,2-5.17,6.8,6.8,0,0,0-1.62-4.66,11.87,11.87,0,0,0-4.1-2.94q-2.47-1.11-6.83-2.57a67.73,67.73,0,0,1-9.23-3.71,17,17,0,0,1-6.11-5.34,15.28,15.28,0,0,1-2.52-9.14A14.87,14.87,0,0,1,421.3,160q5.59-4.47,14.82-4.48,9.56,0,15.24,4.61a17.41,17.41,0,0,1,6.45,12.3h-13a9.06,9.06,0,0,0-2.73-5.34A8.54,8.54,0,0,0,436,165a8,8,0,0,0-5.38,1.75,7.13,7.13,0,0,0-.47,9.48,11.8,11.8,0,0,0,4,2.86,66,66,0,0,0,6.61,2.48,87.07,87.07,0,0,1,9.44,3.85,16.43,16.43,0,0,1,6.19,5.38,15.79,15.79,0,0,1,2.57,9.39A16.32,16.32,0,0,1,456.7,208.65Z"/><polygon class="cls-1" points="448.23 116.95 448.23 45.27 484.07 81.11 448.23 116.95"/></g></g></svg>