<svg width="65" height="65" viewBox="0 0 65 65" fill="none" xmlns="http://www.w3.org/2000/svg">
<path d="M18.9583 5.41666H46.0416V27.9635C46.0416 29.0017 45.7862 29.953 45.2754 30.8174C44.7646 31.6817 44.0495 32.378 43.1301 32.9062L33.5833 38.4583L35.3437 45.026H44.4166L37.0364 50.5104L39.8801 59.5833L32.4999 54.0989L25.052 59.5833L27.8958 50.5104L20.5155 45.026H29.6637L31.3489 38.4583L21.8697 32.9062C20.9503 32.378 20.2352 31.6817 19.7244 30.8174C19.2136 29.953 18.9583 29.0017 18.9583 27.9635V5.41666ZM23.0208 9.47916V27.9635C23.0208 28.2795 23.1223 28.5729 23.3254 28.8437C23.5286 29.1146 23.8333 29.3628 24.2395 29.5885L30.7395 33.1771V9.47916H23.0208ZM41.9791 9.47916H34.802V33.1771L40.7603 29.5885C41.1666 29.3628 41.4713 29.1146 41.6744 28.8437C41.8775 28.5729 41.9791 28.2795 41.9791 27.9635V9.47916Z" fill="white"/>
</svg>
