<svg width="65" height="65" viewBox="0 0 65 65" fill="none" xmlns="http://www.w3.org/2000/svg">
<path d="M21.6665 48.75L32.4998 40.4896L43.3332 48.75L38.9998 35.4114L49.8332 27.7604H36.63L32.4998 14.0156L28.3019 27.7604H15.0988L25.9321 35.4114L21.6665 48.75ZM32.4998 59.5833C28.7984 59.5833 25.3002 58.8724 22.005 57.4505C18.7099 56.0286 15.8323 54.0877 13.3722 51.6276C10.9122 49.1675 8.97119 46.2899 7.54932 42.9948C6.12744 39.6996 5.4165 36.2014 5.4165 32.5C5.4165 28.7535 6.12744 25.2326 7.54932 21.9375C8.97119 18.6424 10.9122 15.776 13.3722 13.3385C15.8323 10.901 18.7099 8.97134 22.005 7.54947C25.3002 6.12759 28.7984 5.41666 32.4998 5.41666C36.2464 5.41666 39.7672 6.12759 43.0623 7.54947C46.3575 8.97134 49.2238 10.901 51.6613 13.3385C54.0988 15.776 56.0285 18.6424 57.4504 21.9375C58.8722 25.2326 59.5832 28.7535 59.5832 32.5C59.5832 36.2014 58.8722 39.6996 57.4504 42.9948C56.0285 46.2899 54.0988 49.1675 51.6613 51.6276C49.2238 54.0877 46.3575 56.0286 43.0623 57.4505C39.7672 58.8724 36.2464 59.5833 32.4998 59.5833ZM32.4998 55.5208C38.9096 55.5208 44.3488 53.2752 48.8175 48.7838C53.2863 44.2925 55.5207 38.8646 55.5207 32.5C55.5207 26.0903 53.2863 20.651 48.8175 16.1823C44.3488 11.7135 38.9096 9.47916 32.4998 9.47916C26.1353 9.47916 20.7073 11.7135 16.216 16.1823C11.7247 20.651 9.479 26.0903 9.479 32.5C9.479 38.8646 11.7247 44.2925 16.216 48.7838C20.7073 53.2752 26.1353 55.5208 32.4998 55.5208Z" fill="white"/>
</svg>
