<?xml version="1.0" encoding="utf-8"?>
<!-- Generator: Adobe Illustrator 24.2.3, SVG Export Plug-In . SVG Version: 6.00 Build 0)  -->
<svg version="1.1" id="Capa_1" xmlns="http://www.w3.org/2000/svg" xmlns:xlink="http://www.w3.org/1999/xlink" x="0px" y="0px"
	 viewBox="0 0 19.8 23.49" style="enable-background:new 0 0 19.8 23.49;" xml:space="preserve">
<style type="text/css">
	.st0{fill:#858688;}
	.st1{fill:#FFFFFF;}
	.st2{fill:#F43737;}
	.st3{fill:#C42626;}
</style>
<g id="Línea_4">
	<rect y="8.52" class="st0" width="5.35" height="0.8"/>
</g>
<g id="Grupo_266" transform="translate(-1783.688 -1463.909)">
	<path id="Trazado_303" class="st1" d="M1803.49,1469.26v16.98c0,0.64-0.52,1.17-1.17,1.17l0,0h-15.96c-0.64,0-1.17-0.52-1.17-1.17
		v0v-21.16c0-0.64,0.52-1.17,1.17-1.17h0h11.81L1803.49,1469.26z"/>
	<path id="Trazado_304" class="st0" d="M1803.49,1469.26h-4.17c-0.63,0-1.14-0.51-1.14-1.14v-4.21L1803.49,1469.26z"/>
	<path id="Trazado_305" class="st2" d="M1785.2,1468.06L1785.2,1468.06c-0.85,0.08-1.51,0.79-1.51,1.65v5.01h1.51v-1.64h11.18
		c0.25,0,0.46-0.2,0.46-0.46l0,0v-4.1c0-0.25-0.2-0.46-0.46-0.46c0,0,0,0,0,0H1785.2z"/>
	<path id="Trazado_306" class="st3" d="M1785.2,1473.07c-0.91,0.08-1.58,0.88-1.51,1.78c0.07,0.8,0.7,1.44,1.51,1.51V1473.07z"/>
	<g id="Grupo_140" transform="translate(1787.415 1469.603)">
		<path id="Trazado_307" class="st1" d="M-0.38-0.58H0.8c0.51-0.07,0.99,0.29,1.06,0.81C1.87,0.26,1.87,0.3,1.87,0.34
			c0,0.64-0.47,0.95-1.1,0.95H0.19V2.5h-0.57V-0.58z M0.19,0.84h0.54c0.35,0,0.57-0.14,0.57-0.49S1.06-0.12,0.74-0.12H0.19
			L0.19,0.84z"/>
		<path id="Trazado_308" class="st1" d="M2.38-0.58h1.13C4.27-0.63,4.92-0.05,4.97,0.7c0,0.07,0,0.14,0,0.21
			c0.08,0.79-0.49,1.5-1.28,1.58C3.61,2.5,3.55,2.5,3.48,2.5h-1.1V-0.58z M2.95,2.04h0.51c0.62,0,0.92-0.45,0.92-1.12
			c0-0.58-0.28-1.04-0.91-1.04H2.95V2.04z"/>
		<path id="Trazado_309" class="st1" d="M5.55-0.58h2.03v0.47H6.11v0.85h1.38V1.2H6.11v1.3H5.55L5.55-0.58z"/>
	</g>
	<path id="Rectángulo_25" class="st0" d="M1788.65,1476.75h11.4c0.27,0,0.5,0.22,0.5,0.5v0c0,0.27-0.22,0.5-0.5,0.5h-11.4
		c-0.27,0-0.5-0.22-0.5-0.5v0C1788.15,1476.97,1788.37,1476.75,1788.65,1476.75z"/>
	<path id="Rectángulo_26" class="st0" d="M1788.65,1479.86h11.4c0.27,0,0.5,0.22,0.5,0.5v0c0,0.27-0.22,0.5-0.5,0.5h-11.4
		c-0.27,0-0.5-0.22-0.5-0.5v0C1788.15,1480.08,1788.37,1479.86,1788.65,1479.86z"/>
	<path id="Rectángulo_27" class="st0" d="M1788.65,1482.97h11.4c0.27,0,0.5,0.22,0.5,0.5v0c0,0.27-0.22,0.5-0.5,0.5h-11.4
		c-0.27,0-0.5-0.22-0.5-0.5v0C1788.15,1483.19,1788.37,1482.97,1788.65,1482.97z"/>
</g>
</svg>
