<svg id="Capa_1" data-name="Capa 1" xmlns="http://www.w3.org/2000/svg" viewBox="0 0 29 27"><defs><style>.cls-1{fill:#1f49b6;fill-rule:evenodd;}</style></defs><path class="cls-1" d="M24,21.65c-.5-.47-3-2.77-3.44-3.12s-.85-.58-1.42-.13S17,19.8,16.58,20.07s-.82.21-1.32-.26a16.52,16.52,0,0,1-3.85-4.33,18.23,18.23,0,0,1-2-5c-.16-.68.24-.9.63-1.09s.79-.5,1.2-.73l.3-.21a7.87,7.87,0,0,0,.59-.58,1.06,1.06,0,0,0,.26-1c0-.33-.35-3.53-.49-4.84s-.68-1.26-1-1.37S10.12.36,9.72.24A2.28,2.28,0,0,0,7.93.47,6.68,6.68,0,0,0,4.37,4.63a7.61,7.61,0,0,0-.31,2.06,13.91,13.91,0,0,0,.86,4.64C5.1,11.8,7,19,12.27,23.16s5.52,3.4,6.64,3.63,3.92-.29,4.82-1.5a4.9,4.9,0,0,0,1.2-2.62C24.86,22.39,24.51,22.12,24,21.65Z"/></svg>