<svg id="Capa_1" data-name="Capa 1" xmlns="http://www.w3.org/2000/svg" viewBox="0 0 38 41"><defs><style>.cls-1{fill:#fff;fill-rule:evenodd;}</style></defs><path class="cls-1" d="M37.71,19.55A18.38,18.38,0,0,0,1,19.22c0,.27,0,.53,0,.8a18,18,0,0,0,2.63,9.4L.29,39.19,10.46,36A18.4,18.4,0,0,0,37.71,20ZM19.34,35.32a15.37,15.37,0,0,1-8.5-2.53L4.91,34.68,6.83,29a15.1,15.1,0,0,1-2.94-9A14.72,14.72,0,0,1,4,18.53a15.46,15.46,0,0,1,30.77.29c0,.4,0,.8,0,1.2A15.39,15.39,0,0,1,19.34,35.32Z"/><path class="cls-1" d="M27.76,23.69c-.45-.22-2.67-1.3-3.08-1.45s-.71-.22-1,.23-1.17,1.45-1.43,1.74-.53.34-1,.11a12.19,12.19,0,0,1-3.62-2.21A13.28,13.28,0,0,1,15.13,19c-.25-.44,0-.68.2-.91s.45-.52.68-.78l.16-.21a5.28,5.28,0,0,0,.29-.54.79.79,0,0,0,0-.78c-.11-.22-1-2.42-1.39-3.31s-.75-.74-1-.74-.56-.05-.87-.05a1.69,1.69,0,0,0-1.2.56A5,5,0,0,0,10.38,16a5.54,5.54,0,0,0,.23,1.52,10,10,0,0,0,1.61,3.09c.22.3,3.11,4.95,7.69,6.75s4.58,1.18,5.41,1.1a4.47,4.47,0,0,0,3-2.12,3.7,3.7,0,0,0,.27-2.12C28.51,24,28.21,23.92,27.76,23.69Z"/></svg>