<svg width="48" height="48" viewBox="0 0 48 48" fill="none" xmlns="http://www.w3.org/2000/svg">
<path d="M8 44C7.43333 44 6.95833 43.8083 6.575 43.425C6.19167 43.0417 6 42.5667 6 42V31.05C6 30.225 6.29375 29.5188 6.88125 28.9312C7.46875 28.3438 8.175 28.05 9 28.05H10.35V18.95C10.35 18.125 10.6438 17.4187 11.2313 16.8313C11.8187 16.2438 12.525 15.95 13.35 15.95H22.5V12.75C21.8333 12.2833 21.325 11.7744 20.975 11.2233C20.625 10.6722 20.45 10.0075 20.45 9.22945C20.45 8.74315 20.5417 8.275 20.725 7.825C20.9083 7.375 21.1667 6.98333 21.5 6.65L24 4L26.5 6.65C26.8333 6.98333 27.1 7.375 27.3 7.825C27.5 8.275 27.6 8.74315 27.6 9.22945C27.6 10.0075 27.4167 10.6722 27.05 11.2233C26.6833 11.7744 26.1667 12.2833 25.5 12.75V15.95H34.65C35.475 15.95 36.1812 16.2438 36.7688 16.8313C37.3563 17.4187 37.65 18.125 37.65 18.95V28.05H39C39.825 28.05 40.5312 28.3438 41.1188 28.9312C41.7062 29.5188 42 30.225 42 31.05V42C42 42.5667 41.8083 43.0417 41.425 43.425C41.0417 43.8083 40.5667 44 40 44H8ZM13.35 28.05H34.65V18.95H13.35V28.05ZM9 41H39V31.05H9V41Z" fill="#021D49"/>
</svg>
