<svg width="50" height="50" viewBox="0 0 50 50" fill="none" xmlns="http://www.w3.org/2000/svg">
<path d="M9.375 38.6979C11.4583 36.7535 13.8176 35.1823 16.4529 33.9844C19.0882 32.7865 21.9355 32.1875 24.9946 32.1875C28.0537 32.1875 30.9028 32.7865 33.5417 33.9844C36.1806 35.1823 38.5417 36.7535 40.625 38.6979V9.375H9.375V38.6979ZM25.1042 28.0729C27.1181 28.0729 28.8194 27.3785 30.2083 25.9896C31.5972 24.6007 32.2917 22.8993 32.2917 20.8854C32.2917 18.8715 31.5972 17.1701 30.2083 15.7812C28.8194 14.3924 27.1181 13.6979 25.1042 13.6979C23.0903 13.6979 21.3889 14.3924 20 15.7812C18.6111 17.1701 17.9167 18.8715 17.9167 20.8854C17.9167 22.8993 18.6111 24.6007 20 25.9896C21.3889 27.3785 23.0903 28.0729 25.1042 28.0729ZM9.375 43.75C8.54167 43.75 7.8125 43.4375 7.1875 42.8125C6.5625 42.1875 6.25 41.4583 6.25 40.625V9.375C6.25 8.54167 6.5625 7.8125 7.1875 7.1875C7.8125 6.5625 8.54167 6.25 9.375 6.25H40.625C41.4583 6.25 42.1875 6.5625 42.8125 7.1875C43.4375 7.8125 43.75 8.54167 43.75 9.375V40.625C43.75 41.4583 43.4375 42.1875 42.8125 42.8125C42.1875 43.4375 41.4583 43.75 40.625 43.75H9.375ZM12.2396 40.625H37.7604V40.1562C35.8854 38.559 33.8715 37.3524 31.7188 36.5365C29.566 35.7205 27.3264 35.3125 25 35.3125C22.6736 35.3125 20.434 35.7205 18.2812 36.5365C16.1285 37.3524 14.1146 38.559 12.2396 40.1562V40.625ZM25.1042 24.9479C23.9757 24.9479 23.0165 24.553 22.2266 23.763C21.4366 22.9731 21.0417 22.0139 21.0417 20.8854C21.0417 19.7569 21.4366 18.7977 22.2266 18.0078C23.0165 17.2179 23.9757 16.8229 25.1042 16.8229C26.2326 16.8229 27.1918 17.2179 27.9818 18.0078C28.7717 18.7977 29.1667 19.7569 29.1667 20.8854C29.1667 22.0139 28.7717 22.9731 27.9818 23.763C27.1918 24.553 26.2326 24.9479 25.1042 24.9479Z" fill="#021D49"/>
</svg>
