<svg width="48" height="48" viewBox="0 0 48 48" fill="none" xmlns="http://www.w3.org/2000/svg">
<g clip-path="url(#clip0_16_298)">
<path d="M0 36V33.35C0 32.0644 0.691667 31.018 2.075 30.2108C3.45833 29.4036 5.27293 29 7.5188 29C7.9243 29 8.31422 29.0083 8.68855 29.025C9.06285 29.0417 9.43333 29.0775 9.8 29.1326C9.53333 29.7109 9.33333 30.2969 9.2 30.8909C9.06667 31.4847 9 32.1045 9 32.75V36H0ZM12 36V32.75C12 31.6833 12.2917 30.7083 12.875 29.825C13.4583 28.9417 14.2833 28.1667 15.35 27.5C16.4167 26.8333 17.6917 26.3333 19.175 26C20.6583 25.6667 22.2667 25.5 24 25.5C25.7667 25.5 27.3917 25.6667 28.875 26C30.3583 26.3333 31.6333 26.8333 32.7 27.5C33.7667 28.1667 34.5833 28.9417 35.15 29.825C35.7167 30.7083 36 31.6833 36 32.75V36H12ZM39 36V32.75C39 32.088 38.9417 31.4641 38.825 30.8785C38.7083 30.2928 38.5167 29.7121 38.25 29.1364C38.6167 29.0788 38.9862 29.0417 39.3586 29.025C39.731 29.0083 40.1114 29 40.5 29C42.75 29 44.5625 29.3961 45.9375 30.1884C47.3125 30.9807 48 32.0345 48 33.35V36H39ZM15 33H33V32.7C33 31.4667 32.1583 30.4583 30.475 29.675C28.7917 28.8917 26.6333 28.5 24 28.5C21.3667 28.5 19.2083 28.8917 17.525 29.675C15.8417 30.4583 15 31.4833 15 32.75V33ZM7.47835 27.5C6.52612 27.5 5.70833 27.1573 5.025 26.4719C4.34167 25.7865 4 24.9625 4 24C4 23.0333 4.3427 22.2083 5.0281 21.525C5.71353 20.8417 6.5375 20.5 7.5 20.5C8.46667 20.5 9.29167 20.8417 9.975 21.525C10.6583 22.2083 11 23.0406 11 24.0217C11 24.9739 10.6583 25.7917 9.975 26.475C9.29167 27.1583 8.45945 27.5 7.47835 27.5ZM40.4784 27.5C39.5261 27.5 38.7083 27.1573 38.025 26.4719C37.3417 25.7865 37 24.9625 37 24C37 23.0333 37.3427 22.2083 38.0281 21.525C38.7135 20.8417 39.5375 20.5 40.5 20.5C41.4667 20.5 42.2917 20.8417 42.975 21.525C43.6583 22.2083 44 23.0406 44 24.0217C44 24.9739 43.6583 25.7917 42.975 26.475C42.2917 27.1583 41.4594 27.5 40.4784 27.5ZM24 24C22.3333 24 20.9167 23.4167 19.75 22.25C18.5833 21.0833 18 19.6667 18 18C18 16.3 18.5833 14.875 19.75 13.725C20.9167 12.575 22.3333 12 24 12C25.7 12 27.125 12.575 28.275 13.725C29.425 14.875 30 16.3 30 18C30 19.6667 29.425 21.0833 28.275 22.25C27.125 23.4167 25.7 24 24 24ZM24.0176 21C24.8725 21 25.5833 20.7108 26.15 20.1324C26.7167 19.5541 27 18.8374 27 17.9824C27 17.1275 26.7142 16.4167 26.1426 15.85C25.5709 15.2833 24.8626 15 24.0176 15C23.1725 15 22.4583 15.2858 21.875 15.8574C21.2917 16.4291 21 17.1374 21 17.9824C21 18.8275 21.2892 19.5417 21.8676 20.125C22.4459 20.7083 23.1626 21 24.0176 21Z" fill="#021D49"/>
</g>
<defs>
<clipPath id="clip0_16_298">
<rect width="48" height="48" fill="white"/>
</clipPath>
</defs>
</svg>
